<?xml version="1.0" encoding="UTF-8" standalone="no"?>
<!-- Created with Inkscape (http://www.inkscape.org/) -->

<svg
   xmlns:dc="http://purl.org/dc/elements/1.1/"
   xmlns:cc="http://creativecommons.org/ns#"
   xmlns:rdf="http://www.w3.org/1999/02/22-rdf-syntax-ns#"
   xmlns:svg="http://www.w3.org/2000/svg"
   xmlns="http://www.w3.org/2000/svg"
   xmlns:sodipodi="http://sodipodi.sourceforge.net/DTD/sodipodi-0.dtd"
   xmlns:inkscape="http://www.inkscape.org/namespaces/inkscape"
   width="150.21411mm"
   height="150.21472mm"
   viewBox="0 0 150.21411 150.21472"
   version="1.1"
   id="svg844"
   inkscape:version="0.92.4 5da689c313, 2019-01-14"
   sodipodi:docname="logo.svg">
  <defs
     id="defs838" />
  <sodipodi:namedview
     id="base"
     pagecolor="#ffffff"
     bordercolor="#666666"
     borderopacity="1.0"
     inkscape:pageopacity="0.0"
     inkscape:pageshadow="2"
     inkscape:zoom="0.98994949"
     inkscape:cx="134.9949"
     inkscape:cy="-152.15421"
     inkscape:document-units="mm"
     inkscape:current-layer="layer1"
     showgrid="false"
     fit-margin-top="0"
     fit-margin-left="0"
     fit-margin-right="0"
     fit-margin-bottom="0"
     inkscape:window-width="3200"
     inkscape:window-height="1672"
     inkscape:window-x="0"
     inkscape:window-y="54"
     inkscape:window-maximized="1" />
  <metadata
     id="metadata841">
    <rdf:RDF>
      <cc:Work
         rdf:about="">
        <dc:format>image/svg+xml</dc:format>
        <dc:type
           rdf:resource="http://purl.org/dc/dcmitype/StillImage" />
        <dc:title></dc:title>
      </cc:Work>
    </rdf:RDF>
  </metadata>
  <g
     inkscape:label="Capa 1"
     inkscape:groupmode="layer"
     id="layer1"
     transform="translate(138.31796,125.55739)">
    <path
       inkscape:connector-curvature="0"
       style="fill:#211e1e;fill-opacity:1;fill-rule:nonzero;stroke:none;stroke-width:0.60813755"
       d="m -83.65839,-72.944745 c 0.175781,0 0.349201,0 0.522621,0 0.171006,0 0.334945,-0.03086 0.486972,-0.09498 0.111706,-0.04741 0.201932,-0.121187 0.268439,-0.216172 0.06895,-0.0974 0.121187,-0.199553 0.156698,-0.313586 0.03568,-0.111706 0.06171,-0.23279 0.07361,-0.3587 0.01207,-0.128255 0.01724,-0.249425 0.01724,-0.361078 0,-0.239927 -0.01724,-0.448978 -0.04741,-0.624777 -0.03327,-0.175782 -0.09257,-0.320689 -0.180539,-0.432343 -0.08792,-0.111706 -0.211414,-0.194796 -0.372956,-0.247046 -0.159112,-0.05223 -0.372956,-0.07843 -0.636637,-0.07843 h -0.64848 v 2.727104 z m 20.448624,-52.611025 h 0.0017 v 0.003 c 20.738437,0 39.514679,8.40941 53.105135,21.99985 13.5880763,13.588077 21.995089,32.364322 21.997483,53.098018 h 0.0016 v 0.0086 h -0.0016 c 0,20.736058 -8.4094067,39.514678 -21.999867,53.1027565 -13.59041,13.5898845 -32.36429,21.9969175 -53.097987,21.9992755 v 0.0016 h -0.01034 v -0.0016 C -83.95179,24.654009 -102.72803,16.246339 -116.31849,2.6558834 -129.90656,-10.934557 -138.31358,-29.708437 -138.31596,-50.442116 h -0.002 v -0.01207 h 0.002 c 0,-20.73604 8.4094,-39.512286 21.99985,-53.102724 13.58808,-13.58808 32.36432,-21.99511 53.098018,-21.99748 v -0.003 z m 0.0017,1.41582 v 0.005 h -0.01034 v -0.005 c -20.336987,0.003 -38.756884,8.25261 -52.093164,21.58888 -13.33627,13.336268 -21.58888,31.758557 -21.58888,52.097904 h 0.002 v 0.01207 h -0.002 c 0,20.336985 8.25261,38.756889 21.5865,52.0931635 13.33628,13.3362585 31.758557,21.5888805 52.100285,21.5888805 v -0.0016 h 0.01034 v 0.0016 c 20.336985,0 38.756889,-8.252622 52.09316,-21.5888805 C 2.2261351,-11.68421 10.478746,-30.104114 10.478746,-50.445839 h -0.0016 v -0.0086 h 0.0016 c 0,-20.336968 -8.2502481,-38.756896 -21.586507,-52.093151 -13.336256,-13.33869 -31.758555,-21.58893 -52.100281,-21.59131 z m -0.0017,2.73187 h 0.0017 v 0.003 c 19.591056,0.003 37.331572,7.94618 50.171358,20.78595 12.83738787,12.839782 20.781185,30.575551 20.781185,50.164228 h 0.00158 v 0.0086 h -0.00158 c 0,19.591056 -7.94379713,37.329193 -20.783564,50.16896086 C -25.878847,12.562094 -43.616984,20.503513 -63.203282,20.505891 v 0.0016 h -0.01034 v -0.0016 c -19.591058,0 -37.329198,-7.943797 -50.171368,-20.78594492 C -126.22226,-13.117459 -134.16605,-30.855596 -134.16605,-50.441894 h -0.002 v -0.01207 h 0.002 c 0,-19.588694 7.94379,-37.329197 20.78358,-50.168976 12.83977,-12.83737 30.577908,-20.78116 50.164225,-20.78354 v -0.003 z m 0.0017,0.94546 v 0.003 h -0.01034 v -0.003 c -19.322585,0.003 -36.823174,7.84165 -49.494274,20.510389 -12.67113,12.671118 -20.5104,30.174069 -20.5104,49.499065 v 0.01207 c 0,19.322617 7.83927,36.823207 20.50802,49.49433028 C -100.04394,11.724338 -82.540968,19.56362 -63.213608,19.56362 v -0.0016 h 0.01034 v 0.0016 c 19.322635,0 36.823207,-7.839282 49.494331,-20.51038872 C -1.0378289,-13.615513 6.8014533,-31.118482 6.8014533,-50.445839 v -0.0086 c 0,-19.325031 -7.8392664,-36.82562 -20.5080083,-49.494366 -12.671126,-12.671105 -30.174078,-20.512755 -49.501453,-20.512755 z m -52.527854,62.48376 c -0.0214,-0.216171 -0.0309,-0.441858 -0.0309,-0.677026 0,-0.232807 -0.0104,-0.467993 -0.0284,-0.703161 0,-0.17816 -0.005,-0.337324 -0.0138,-0.48461 -0.009,-0.147217 -0.0546,-0.308828 -0.13308,-0.48461 -0.019,-0.05947 -0.0641,-0.152044 -0.13067,-0.280316 -0.069,-0.125841 -0.16394,-0.249442 -0.2803,-0.365836 -0.11636,-0.118774 -0.25894,-0.220929 -0.42522,-0.308812 -0.16635,-0.08792 -0.36821,-0.133081 -0.60338,-0.133081 -0.21381,0 -0.3801,0.0262 -0.49887,0.07361 -0.11636,0.04982 -0.21379,0.09257 -0.29219,0.133082 -0.33494,0.194796 -0.54874,0.43948 -0.64852,0.734035 -0.0974,0.292193 -0.16393,0.636654 -0.20429,1.028624 -0.0381,1.016712 -0.0784,2.026322 -0.11636,3.024054 -0.0404,0.997716 -0.0595,2.007326 -0.0595,3.024055 0,0.881321 0.019,1.743645 0.0595,2.584593 0.0381,0.84331 0.0879,1.703254 0.14498,2.584575 0.0214,0.09981 0.0357,0.201915 0.0451,0.308811 0.0104,0.106879 0.0333,0.220929 0.0736,0.337341 0.0189,0.07844 0.0474,0.192417 0.0879,0.337324 0.0379,0.147217 0.11171,0.289814 0.22093,0.427585 0.10688,0.135495 0.25417,0.254182 0.43946,0.351597 0.1853,0.0974 0.42522,0.147218 0.7198,0.147218 0.41096,0 0.78392,-0.161526 1.11649,-0.48461 0.33258,-0.323068 0.49888,-0.914591 0.49888,-1.776915 0,-0.275558 -0.005,-0.548738 -0.0138,-0.821934 -0.0104,-0.275559 -0.0138,-0.548738 -0.0138,-0.821934 0,-0.256544 0.005,-0.505986 0.0138,-0.75067 0.009,-0.244667 0.0138,-0.494108 0.0138,-0.748291 h -1.55597 v -3.083441 h 4.78671 v 11.188782 h -2.99555 v -1.204406 c -0.45136,0.451357 -0.87658,0.802937 -1.27805,1.05712 -0.40145,0.254182 -0.91458,0.39197 -1.54171,0.410967 -0.0404,0 -0.16636,-0.0052 -0.38248,-0.01379 -0.21379,-0.0086 -0.41097,-0.03327 -0.58675,-0.07361 -0.70553,-0.11636 -1.22815,-0.323085 -1.57024,-0.615279 -0.34439,-0.294485 -0.60331,-0.567665 -0.77911,-0.821847 -0.37296,-0.567752 -0.601,-1.161637 -0.69128,-1.776898 -0.0879,-0.61764 -0.14963,-1.259052 -0.19004,-1.924184 -0.0379,-0.881321 -0.0689,-1.753143 -0.0879,-2.613105 -0.0189,-0.862306 -0.0285,-1.734128 -0.0285,-2.615449 0,-0.997733 0.0138,-1.995465 0.0427,-2.99556 0.0308,-0.997732 0.0641,-1.995448 0.10223,-2.995542 0.0404,-0.567769 0.10446,-1.066635 0.19241,-1.496599 0.0879,-0.43236 0.29932,-0.88132 0.6319,-1.351674 0.25418,-0.35158 0.58675,-0.665149 0.99772,-0.938346 0.41098,-0.275558 1.06661,-0.491729 1.96695,-0.648514 0.0974,-0.01896 0.31357,-0.04758 0.64615,-0.08792 0.33257,-0.03793 0.67703,-0.05689 1.02861,-0.05689 0.13773,0 0.30881,0.0052 0.51312,0.01379 0.20666,0.0086 0.4656,0.04275 0.77916,0.102225 0.13774,0.04034 0.35158,0.106879 0.64616,0.206673 0.29455,0.0974 0.59624,0.249424 0.90983,0.453718 0.31357,0.206673 0.60812,0.470354 0.88132,0.793439 0.27556,0.323067 0.47035,0.719778 0.58675,1.190149 0.0974,0.351563 0.15687,0.836173 0.1758,1.453813 0.0214,0.615261 0.0309,1.344555 0.0309,2.187882 z m 10.51651,-6.257161 v 20.648158 h -3.46591 v -20.648158 z m 10.782559,0.0593 3.582324,20.557897 h -3.435038 l -0.852808,-5.549261 h -3.083459 l -0.762547,5.549261 h -3.408891 l 3.378016,-20.557897 z m -1.145002,12.100976 -1.263792,-9.692183 c -0.07844,1.584481 -0.194796,3.171341 -0.351563,4.758201 -0.07844,0.821934 -0.166352,1.643868 -0.263698,2.465802 -0.09981,0.821933 -0.206673,1.646246 -0.325447,2.46818 z m 14.041796,-5.432848 c -0.02138,-0.334945 -0.03086,-0.667529 -0.03086,-1.000095 0,-0.332583 -0.01035,-0.665149 -0.02844,-0.997732 0,-0.39197 -0.02379,-0.74355 -0.07361,-1.057119 -0.04982,-0.31357 -0.239926,-0.608125 -0.572509,-0.881321 -0.313552,-0.216172 -0.636637,-0.323068 -0.96922,-0.323068 -0.294555,0 -0.558236,0.06895 -0.793422,0.206673 -0.332583,0.175782 -0.543997,0.429964 -0.631896,0.762547 -0.08792,0.332584 -0.152044,0.696024 -0.190037,1.085615 -0.04034,0.981097 -0.07361,1.947938 -0.102053,2.90766 -0.03086,0.959722 -0.04517,1.928942 -0.04517,2.90766 0,1.781656 0.03086,3.582308 0.08792,5.404353 0.04034,0.586749 0.102225,1.007232 0.192417,1.263775 0.08792,0.254183 0.249425,0.467975 0.48461,0.646153 0.07843,0.07843 0.209052,0.161525 0.394332,0.249424 0.187676,0.08792 0.418104,0.130669 0.691283,0.130669 0.372955,0 0.686525,-0.135495 0.940707,-0.410967 0.332583,-0.332566 0.503624,-0.743533 0.513123,-1.232901 0.01034,-0.489351 0.02379,-0.950206 0.04517,-1.380187 0,-0.313569 0.0052,-0.627139 0.01379,-0.940708 0.01035,-0.313569 0.01379,-0.624759 0.01379,-0.938345 h 3.34714 c 0,0.489368 0.0052,0.973978 0.01724,1.453847 0.01035,0.477473 0.0052,0.964462 -0.01724,1.453812 0,0.0974 -0.0052,0.332584 -0.01379,0.703161 -0.01035,0.372956 -0.07361,0.74355 -0.190055,1.116506 -0.07843,0.332566 -0.220912,0.677027 -0.427585,1.028607 -0.204293,0.35158 -0.494108,0.674648 -0.864702,0.96922 -0.372956,0.292193 -0.826675,0.536877 -1.365931,0.734034 -0.539239,0.194796 -1.190149,0.292194 -1.952696,0.292194 -0.09981,0 -0.275559,-0.0052 -0.529741,-0.01379 -0.254182,-0.0086 -0.553495,-0.03793 -0.895577,-0.08792 -0.342082,-0.04758 -0.696041,-0.130668 -1.057119,-0.249424 -0.361079,-0.11636 -0.700782,-0.273197 -1.014351,-0.470354 -0.175781,-0.11636 -0.325446,-0.235186 -0.453719,-0.35158 -0.128254,-0.116361 -0.258939,-0.263698 -0.396727,-0.441859 -0.194796,-0.254182 -0.342065,-0.482231 -0.439462,-0.688904 -0.09981,-0.206672 -0.166352,-0.377714 -0.206673,-0.513122 -0.0974,-0.332566 -0.171007,-0.696024 -0.22093,-1.087994 -0.0474,-0.391953 -0.08309,-0.762547 -0.102224,-1.116506 -0.04034,-0.959704 -0.06895,-1.917047 -0.08792,-2.876769 -0.01896,-0.959721 -0.02844,-1.928941 -0.02844,-2.907659 0,-0.567752 0.0052,-1.130763 0.01379,-1.688999 0.01035,-0.55827 0.02379,-1.121264 0.04275,-1.689015 0.04034,-0.508365 0.07361,-1.011989 0.104466,-1.510838 0.02844,-0.501246 0.06171,-1.004852 0.102224,-1.513217 0.03793,-0.254182 0.08792,-0.498866 0.147218,-0.734035 0.05947,-0.235185 0.135495,-0.470371 0.235185,-0.705539 0.213792,-0.489368 0.477473,-0.881338 0.791043,-1.173514 0.313569,-0.294572 0.631896,-0.525 0.954963,-0.691283 0.323085,-0.166352 0.627156,-0.282695 0.912212,-0.35158 0.282695,-0.06895 0.494109,-0.113947 0.629518,-0.133082 0.137736,-0.01896 0.349201,-0.04275 0.631896,-0.07361 0.285057,-0.02844 0.612882,-0.04275 0.983476,-0.04275 0.275558,0 0.672269,0.03327 1.190132,0.102225 0.517863,0.06895 1.080874,0.296934 1.689016,0.688904 0.0974,0.07844 0.244683,0.197174 0.439479,0.353959 0.197157,0.156698 0.401469,0.370577 0.617623,0.646152 0.216188,0.292194 0.377713,0.596247 0.48461,0.909816 0.106879,0.313587 0.190055,0.669907 0.249441,1.071376 0.05947,0.401468 0.09257,0.862324 0.102225,1.380187 0.0086,0.520242 0.01379,1.121247 0.01379,1.807789 z m 6.140766,4.285468 c 0,-0.878942 0.0052,-1.755522 0.01379,-2.627344 0.01034,-0.871822 0.02379,-1.757901 0.04517,-2.658219 0.01897,-0.74355 0.06896,-1.482342 0.144977,-2.216377 0.08085,-0.734051 0.325464,-1.375446 0.734052,-1.924183 0.197157,-0.273197 0.401468,-0.489368 0.617639,-0.646153 0.216171,-0.156871 0.382455,-0.273179 0.49885,-0.35158 0.627155,-0.391953 1.240037,-0.622398 1.836301,-0.691283 0.596264,-0.06895 1.014351,-0.102225 1.247157,-0.102225 0.17816,0 0.396711,0.0052 0.662771,0.01379 0.263682,0.0086 0.591525,0.06413 0.983478,0.161526 0.194795,0.04034 0.44422,0.102224 0.74829,0.190055 0.304071,0.09033 0.61764,0.239926 0.940708,0.456097 0.323085,0.216171 0.624776,0.508365 0.909833,0.881321 0.282695,0.372956 0.494109,0.850446 0.631896,1.439573 0.0974,0.429982 0.152044,0.869461 0.161525,1.320801 0.01034,0.451357 0.02379,1.116506 0.04275,1.997826 0,0.351581 0.0052,0.710298 0.01724,1.071376 0.01034,0.361079 0.01379,0.729277 0.01379,1.10225 0.01896,0.624759 0.02844,1.242399 0.02844,1.848162 0,0.608141 0,1.225781 0,1.850541 0,0.567751 0,1.13552 0,1.703271 0,0.567735 -0.01034,1.135503 -0.02844,1.703255 -0.04034,0.705539 -0.09981,1.361173 -0.17816,1.969314 -0.07843,0.605763 -0.361096,1.204406 -0.850446,1.791171 -0.353959,0.448961 -0.83145,0.817176 -1.439574,1.102233 -0.605763,0.282695 -1.506097,0.425223 -2.700989,0.425223 -0.567752,0 -1.121247,-0.0593 -1.660503,-0.175781 -0.536877,-0.118774 -1.06186,-0.344461 -1.570225,-0.677027 -0.235185,-0.156871 -0.420482,-0.313569 -0.558253,-0.467992 -0.137736,-0.159112 -0.244684,-0.285057 -0.323067,-0.382454 -0.275576,-0.39197 -0.460873,-0.802938 -0.558254,-1.23528 -0.0974,-0.429981 -0.166352,-0.722175 -0.206672,-0.878959 -0.0974,-0.646136 -0.154458,-1.444315 -0.175799,-2.394538 -0.01896,-0.950206 -0.02844,-2.147475 -0.02844,-3.598943 z m 3.494409,1.734146 c 0,0.429981 0,0.845688 0,1.247157 0,0.401469 0.01035,0.798179 0.02844,1.190149 0.02138,0.489351 0.04517,0.886079 0.07361,1.19015 0.03086,0.304053 0.09498,0.562993 0.192433,0.776786 0.27318,0.627138 0.762548,0.940724 1.46807,0.940724 0.292193,0 0.558253,-0.07844 0.79344,-0.235185 0.254182,-0.156871 0.420465,-0.368216 0.498866,-0.631896 0.07844,-0.263681 0.137736,-0.541618 0.175782,-0.836191 0.05947,-0.410966 0.0974,-1.028606 0.118773,-1.85054 0.01896,-0.821934 0.02844,-1.791154 0.02844,-2.90766 0,-0.919332 -0.0052,-1.824407 -0.01379,-2.715244 -0.01207,-0.890819 -0.01379,-1.788775 -0.01379,-2.689092 0,-0.762565 -0.02138,-1.4087 -0.05947,-1.93844 -0.04034,-0.527379 -0.137736,-0.928848 -0.294573,-1.204406 -0.07843,-0.0974 -0.209051,-0.232806 -0.39671,-0.408588 -0.185299,-0.17816 -0.453738,-0.26606 -0.80768,-0.26606 -0.313569,0 -0.650893,0.109293 -1.011989,0.323068 -0.363457,0.216171 -0.593885,0.646153 -0.691282,1.292288 -0.01897,0.137736 -0.03327,0.363457 -0.04275,0.674665 -0.01207,0.313552 -0.02138,0.686525 -0.03086,1.116506 -0.01035,0.432343 -0.01379,0.886061 -0.01379,1.365931 0,0.479852 0,0.954963 0,1.425317 z m 15.863843,-12.687742 c 0.21381,1.097492 0.415725,2.178366 0.601022,3.244983 0.18528,1.066618 0.358699,2.149854 0.513105,3.244984 0.156871,1.05712 0.289815,2.121359 0.396711,3.187976 0.109292,1.066601 0.211431,2.128478 0.308828,3.185598 0.04034,-0.684164 0.09257,-1.380188 0.161526,-2.085727 0.06895,-0.70316 0.152043,-1.399201 0.249441,-2.083347 0.0974,-0.686542 0.216172,-1.380187 0.351563,-2.085726 0.137736,-0.705539 0.266077,-1.411061 0.382472,-2.114222 0.275558,-1.527473 0.510743,-3.035949 0.705539,-4.523032 h 5.344966 v 20.617284 h -3.259257 l 0.147217,-17.445943 -3.142828,17.415069 h -1.93844 l -3.054929,-17.386557 v 17.386557 h -3.202233 v -20.58641 z m 22.674515,0.05947 v 3.142829 h -6.019615 v 5.257067 h 5.667966 v 2.964668 h -5.668035 v 5.934093 h 6.283295 v 3.199854 h -9.74919 v -20.498511 z m 12.42644,-0.05947 v 3.17134 h -3.613199 v 17.417431 h -3.406526 v -17.41743 h -3.610821 v -3.17134 z m 12.4264258,0 v 3.17134 H -12.12684 v 17.417431 h -3.406529 v -17.41743 h -3.61082 v -3.17134 z m 5.7582928,-0.0593 v 20.648158 h -3.4635322 v -20.648158 z m -60.4550296,40.084809 2.047698,4.254576 4.679817,0.634275 -3.413646,3.263998 0.84331,4.646547 -4.157179,-2.237753 -4.157197,2.237753 0.84331,-4.646547 -3.413647,-3.263998 4.679818,-0.634275 z m -37.079775,-5.606269 v -7.13612 h 3.777108 v 1.045242 h -2.444426 v 1.810168 h 2.292399 v 1.045225 h -2.292399 v 3.235485 z m 5.786812,0 1.703255,-7.13612 h 1.79829 l 1.617735,7.13612 h -1.427697 l -0.35158,-1.807789 h -1.560726 l -0.351581,1.807789 z m 1.988329,-2.855392 h 1.142622 l -0.36344,-2.02634 c -0.03086,-0.163938 -0.05706,-0.330187 -0.07602,-0.494108 -0.01896,-0.166352 -0.03793,-0.330205 -0.05706,-0.494109 -0.0052,-0.08309 -0.01207,-0.163938 -0.01896,-0.244684 -0.0052,-0.07843 -0.01379,-0.15687 -0.02844,-0.232806 h -0.01896 c -0.01207,0.07602 -0.02138,0.154457 -0.02844,0.232806 -0.0052,0.08068 -0.01207,0.161526 -0.01896,0.244684 -0.01896,0.163939 -0.03793,0.327826 -0.05706,0.494109 -0.01896,0.163938 -0.04275,0.330204 -0.07602,0.494108 z m 6.822551,2.855392 h -1.330316 v -7.13612 h 2.121358 l 0.712659,3.311508 c 0.05706,0.273196 0.104466,0.543997 0.142563,0.817176 0.04034,0.273196 0.07361,0.548754 0.104465,0.82907 h 0.02138 c 0.03086,-0.356338 0.05947,-0.660408 0.09033,-0.914574 0.02844,-0.254199 0.06654,-0.496487 0.118773,-0.731672 l 0.712659,-3.311508 h 2.11186 v 7.13612 h -1.330385 v -2.244889 c 0,-0.71028 0.0069,-1.42056 0.02379,-2.126099 0.01379,-0.707901 0.04517,-1.418198 0.09033,-2.128478 h -0.01896 l -1.427696,6.499466 h -0.810056 l -1.399202,-6.499466 h -0.04758 c 0.04517,0.71028 0.07602,1.420577 0.09033,2.128478 0.01724,0.705539 0.02379,1.415819 0.02379,2.126099 z m 7.727609,0 v -7.13612 h 1.332677 v 7.13612 z m 4.273591,0 v -7.13612 h 1.332677 v 6.090878 h 2.475301 v 1.045242 z m 7.195509,-5.261807 c 0.0712,0.17816 0.133081,0.356321 0.185297,0.53686 0.05465,0.180539 0.0974,0.365836 0.128255,0.558253 h 0.01896 c 0.05223,-0.280316 0.11636,-0.524983 0.194778,-0.734035 0.08085,-0.209052 0.161525,-0.415725 0.244684,-0.61764 l 0.636654,-1.617751 h 1.456192 l -1.883794,4.100188 v 3.035932 h -1.332677 v -3.035932 l -1.855299,-4.100188 h 1.456209 z m 13.766237,1.817287 c 0.06896,0.361079 0.123601,0.76253 0.161525,1.199631 0.03793,0.4371 0.08309,0.883699 0.133082,1.342176 h 0.01896 c 0.01379,-0.09033 0.02138,-0.175782 0.02379,-0.256544 0.0052,-0.08309 0.01207,-0.168593 0.02379,-0.25894 0.0262,-0.304071 0.05223,-0.608142 0.08085,-0.912212 0.02844,-0.304054 0.06895,-0.610504 0.118774,-0.914575 l 0.534481,-3.891136 h 1.380187 l -1.323164,7.13612 h -1.598737 l -0.534498,-2.817381 c -0.06895,-0.380093 -0.121187,-0.757807 -0.156871,-1.13552 -0.03327,-0.377697 -0.07843,-0.75779 -0.128255,-1.137865 h -0.01896 c -0.04982,0.380075 -0.09257,0.760168 -0.128254,1.137865 -0.03568,0.377713 -0.08792,0.755427 -0.156871,1.13552 l -0.475111,2.817381 h -1.59874 l -1.361156,-7.13612 h 1.380187 l 0.598643,3.891136 c 0.04982,0.304071 0.09033,0.610521 0.118774,0.914575 0.02844,0.30407 0.05465,0.608141 0.08068,0.912212 0.01207,0.09033 0.02138,0.175798 0.02379,0.25894 0.0052,0.08085 0.0086,0.166352 0.01379,0.256544 h 0.01896 c 0.04982,-0.458477 0.0974,-0.905076 0.137736,-1.342176 0.04275,-0.437101 0.0974,-0.838552 0.166352,-1.199631 l 0.648446,-3.6916 h 1.102249 z m 4.98625,3.44452 v -7.13612 h 1.332677 v 7.13612 z m 7.461567,-7.13612 h 1.332677 v 7.13612 h -1.389685 l -1.038123,-2.539444 c -0.175781,-0.425223 -0.339702,-0.864703 -0.48935,-1.313681 -0.149631,-0.451357 -0.304071,-0.957342 -0.460855,-1.522715 h -0.01897 c 0.02379,0.296951 0.04982,0.622398 0.07602,0.96922 0.02379,0.349201 0.04741,0.705539 0.06654,1.066618 0.01896,0.361078 0.03327,0.715037 0.04741,1.057102 0.01207,0.342082 0.01896,0.655651 0.01896,0.940725 v 1.342175 h -1.332675 v -7.13612 h 1.380186 l 1.038106,2.59647 c 0.171006,0.420465 0.330204,0.850447 0.479869,1.294666 0.149631,0.444221 0.306433,0.957343 0.470354,1.54173 h 0.01896 c -0.0262,-0.323085 -0.04982,-0.655651 -0.0712,-1.000112 -0.02138,-0.342064 -0.04275,-0.684146 -0.06171,-1.026227 -0.01896,-0.342082 -0.03568,-0.681785 -0.04741,-1.019109 -0.01207,-0.334945 -0.01896,-0.665149 -0.01896,-0.988217 z m 4.226081,7.13612 v -7.13612 h 3.748591 v 1.045242 h -2.415913 v 1.798291 h 2.225875 v 1.047603 h -2.225875 v 2.199742 h 2.415913 v 1.045242 z m 9.155323,-4.967252 c 0,-0.159112 -0.0052,-0.313569 -0.01379,-0.465596 -0.01035,-0.152044 -0.04275,-0.287453 -0.09498,-0.403847 -0.05465,-0.118774 -0.133081,-0.213793 -0.237564,-0.287436 -0.104466,-0.0712 -0.249425,-0.109292 -0.434722,-0.109292 -0.220929,0 -0.39909,0.05223 -0.532119,0.152043 -0.133082,0.102225 -0.199536,0.27318 -0.199536,0.515485 0,0.133082 0.02137,0.249441 0.06171,0.34684 0.04034,0.0974 0.09498,0.185296 0.161526,0.261301 0.06654,0.07602 0.147217,0.147218 0.242305,0.209052 0.09498,0.06413 0.194795,0.130668 0.296933,0.199536 0.10688,0.0712 0.235186,0.152044 0.384834,0.247063 0.14963,0.09499 0.29933,0.197175 0.451357,0.30645 0.152044,0.106879 0.296951,0.213792 0.43236,0.323067 0.137736,0.106879 0.251803,0.206673 0.346822,0.294572 0.230428,0.223292 0.387213,0.448962 0.472733,0.679389 0.0855,0.232807 0.128254,0.503624 0.128254,0.814814 0,0.334945 -0.05465,0.631896 -0.161525,0.890837 -0.109292,0.256544 -0.25894,0.470353 -0.451356,0.641377 -0.194796,0.171006 -0.425224,0.301709 -0.696024,0.389591 -0.268438,0.09033 -0.56539,0.133082 -0.890837,0.133082 -0.399089,0 -0.736413,-0.05223 -1.011971,-0.161525 -0.275558,-0.10688 -0.498866,-0.256545 -0.672286,-0.4466 -0.171006,-0.190037 -0.294555,-0.418086 -0.370577,-0.684146 -0.07602,-0.268438 -0.113947,-0.558253 -0.113947,-0.87658 v -0.522604 h 1.332678 v 0.418087 c -0.01207,0.349201 0.04033,0.636637 0.161525,0.859945 0.121187,0.22567 0.346822,0.339703 0.674647,0.339703 0.553513,0 0.829071,-0.280316 0.829071,-0.838569 0,-0.209035 -0.04517,-0.387213 -0.137736,-0.536861 -0.09257,-0.14963 -0.223291,-0.285073 -0.394332,-0.403847 -0.171006,-0.135322 -0.353958,-0.26368 -0.543997,-0.387212 -0.190054,-0.123601 -0.377713,-0.249425 -0.565389,-0.375335 -0.187659,-0.125841 -0.365819,-0.261302 -0.53686,-0.403847 -0.171007,-0.142563 -0.325464,-0.304071 -0.458477,-0.482231 -0.228066,-0.334946 -0.342081,-0.700782 -0.342081,-1.092752 0,-0.615261 0.171006,-1.083236 0.515484,-1.403942 0.342082,-0.320689 0.867082,-0.479852 1.577362,-0.479852 0.534498,0 0.940707,0.08792 1.218644,0.26606 0.280316,0.175798 0.482231,0.389591 0.61052,0.636637 0.125841,0.247062 0.199537,0.503624 0.21855,0.772062 0.01896,0.26606 0.02844,0.486972 0.02844,0.66515 z m -77.240609,-36.887335 0.002,-0.0069 0.002,-0.0052 c 1.10699,-2.142735 2.37078,-4.173815 3.7676,-6.079002 1.399191,-1.907557 2.933783,-3.69396 4.591907,-5.347335 8.506809,-8.497298 20.165945,-13.481174 32.566253,-13.481174 h 0.0069 c 6.934189,0.0024 13.635587,1.560723 19.681335,4.416125 1.477567,0.698402 2.917159,1.475207 4.309206,2.323273 7.159875,4.368611 13.131979,10.687545 17.077745,18.448428 l -0.84331,0.427585 c -3.867382,-7.601716 -9.713576,-13.792366 -16.728543,-18.068334 -1.365931,-0.833811 -2.774614,-1.593983 -4.218945,-2.275759 -5.924596,-2.80076 -12.488189,-4.325852 -19.277488,-4.328231 v 0.0024 h -0.0069 v -0.0024 c -12.146126,0 -23.565335,4.881727 -31.901104,13.207988 -1.617733,1.615365 -3.123814,3.363759 -4.494502,5.235687 -1.370694,1.867176 -2.605974,3.857866 -3.691584,5.953091 z m 76.995925,49.843516 -0.0017,0.0052 c -1.221024,1.536972 -2.534705,2.986061 -3.926769,4.340115 -1.394443,1.356432 -2.864891,2.617845 -4.399501,3.772345 -7.910515,5.9626207 -17.628849,9.2860058 -27.736757,9.2860058 h -0.0069 v -0.00158 c -7.005454,0 -13.823247,-1.5987347 -19.97827,-4.5610415 -0.995337,-0.4798525 -1.978813,-0.9977158 -2.950412,-1.5559683 h -0.0017 c -4.964873,-2.850652 -9.414262,-6.632496 -13.074954,-11.217294 l 0.741154,-0.586749 c 3.582308,4.485004 7.939057,8.190844 12.804154,10.984488 0.935967,0.539239 1.902808,1.047604 2.893404,1.525094 6.031492,2.9029021 12.706757,4.4683842 19.567304,4.4683842 v -0.00158 h 0.0069 c 9.901235,0 19.420015,-3.2544834 27.166639,-9.0935582 1.510837,-1.135504 2.95279,-2.370784 4.311602,-3.693962 1.36119,-1.323179 2.646357,-2.743739 3.845988,-4.249836 h 0.0017 l 0.0017,-0.0052 z m -86.422065,-10.328837 1.32794,3.130968 c 0.21379,0.503607 0.31357,0.992975 0.30169,1.472827 -0.0121,0.479852 -0.1236,0.92883 -0.33496,1.349313 -0.21141,0.420465 -0.51548,0.80292 -0.90982,1.14738 -0.39671,0.346823 -0.87182,0.639016 -1.43245,0.876563 -0.42998,0.182918 -0.9027,0.320706 -1.41582,0.415725 -0.5155,0.09498 -1.01911,0.0974 -1.51559,0.0069 -0.49411,-0.08792 -0.95735,-0.289815 -1.38731,-0.603384 -0.42998,-0.313569 -0.77918,-0.78868 -1.05,-1.427696 l -1.31129,-3.088165 z m -6.39019,3.945765 0.85757,2.021582 c 0.28981,0.681784 0.7768,1.116506 1.46097,1.304182 0.68652,0.187659 1.52033,0.07361 2.50381,-0.344461 0.9811,-0.418086 1.62723,-0.935949 1.93606,-1.553589 0.30883,-0.61764 0.31119,-1.285168 0.007,-2.002585 l -0.82669,-1.947938 z m 9.30023,17.464958 -3.81511,-4.881732 6.6135,-5.169168 3.76522,4.819966 -0.79342,0.61764 -3.06444,-3.924389 -2.02872,1.584481 2.82928,3.620318 -0.79106,0.61764 -2.82928,-3.620319 -2.21162,1.727027 3.11671,3.990896 z m 6.94369,5.6870327 3.16184,2.8482723 -0.67227,0.7459127 -4.00515,-3.6060463 5.61815,-6.2381824 0.840931,0.760185 z m 14.697467,5.91271554 2.045336,0.95258506 c 0.232807,0.1092931 0.453719,0.1852968 0.662771,0.2256851 0.206672,0.040362 0.406226,0.040362 0.591506,0 0.187676,-0.04273 0.361079,-0.1353206 0.51788,-0.2779347 0.154457,-0.1401513 0.292177,-0.3397038 0.410967,-0.5938843 0.111706,-0.23992492 0.168593,-0.45849535 0.166352,-0.65803197 -0.0017,-0.19955241 -0.04741,-0.37771349 -0.135323,-0.53924038 -0.08792,-0.16152162 -0.213792,-0.30644589 -0.377713,-0.43472019 -0.163939,-0.12825324 -0.35158,-0.24231927 -0.563011,-0.33971954 L -87.78516,-1.7261392 Z m -1.907566,4.08829586 -1.026228,-0.4774766 3.546676,-7.6088505 3.423145,1.5963561 c 0.351597,0.163937 0.643773,0.3634579 0.871822,0.60102527 0.230427,0.23516778 0.399089,0.49410546 0.503624,0.77678147 0.104465,0.28033427 0.147217,0.57489259 0.128254,0.88370127 -0.01896,0.31120829 -0.09981,0.62001699 -0.247062,0.93120949 -0.121187,0.2613215 -0.285057,0.5060036 -0.49173,0.7388086 -0.206673,0.2304106 -0.448978,0.4133446 -0.726915,0.5487388 -0.280316,0.137736 -0.591523,0.2066724 -0.940708,0.2066724 -0.349218,0 -0.731672,-0.094985 -1.149776,-0.2898118 l -2.394538,-1.1165062 z m 12.540474,2.1237352 -1.403959,2.1831257 -1.140244,-0.2636843 4.964874,-7.4687044 1.251898,0.289817 1.073737,8.8631297 -1.206767,-0.280319 -0.258923,-2.565575 z m 3.107196,-0.3159497 -0.377714,-3.8768768 -0.02138,-0.00526 -2.140355,3.2972482 z m 10.347836,4.6964354 -1.133125,0.03794 -0.294572,-8.3880161 3.879259,-0.1353258 c 0.344444,-0.012051 0.681785,0.012051 1.014351,0.068957 0.334945,0.059296 0.631896,0.1685889 0.895577,0.3254429 0.263698,0.1591114 0.479852,0.3824548 0.648531,0.6675304 0.171006,0.2874332 0.263681,0.6532696 0.277937,1.0974935 0.01207,0.3111873 -0.01379,0.5772659 -0.07602,0.7957995 -0.06171,0.220928 -0.14963,0.4109661 -0.256561,0.5653889 -0.106879,0.156696 -0.228066,0.2898117 -0.365837,0.399089 -0.135322,0.1092931 -0.268438,0.2066565 -0.399089,0.289817 0.118773,0.04273 0.237547,0.092569 0.356338,0.1496287 0.118773,0.059301 0.228049,0.1425615 0.325446,0.251802 0.0974,0.1092931 0.180539,0.2541858 0.247046,0.4299631 0.06895,0.1781768 0.113947,0.4133499 0.130668,0.7102973 l 0.123601,1.5155956 c 0.01724,0.235168 0.04982,0.406209 0.09981,0.517865 0.04982,0.111708 0.168593,0.213792 0.349218,0.308814 l 0.0069,0.187675 -1.389685,0.04741 c -0.04275,-0.130669 -0.08309,-0.296948 -0.116361,-0.498863 -0.03568,-0.201915 -0.06413,-0.406214 -0.08792,-0.615265 -0.02138,-0.211429 -0.03793,-0.4062251 -0.04741,-0.5915219 -0.01207,-0.1829182 -0.01896,-0.3111925 -0.02138,-0.3895747 -0.0052,-0.1710044 -0.02379,-0.3468395 -0.05947,-0.5250006 -0.03327,-0.1781611 -0.104465,-0.3373252 -0.21381,-0.4774871 -0.111705,-0.1401513 -0.266059,-0.2518072 -0.463234,-0.3349466 -0.197157,-0.083092 -0.467975,-0.1187758 -0.810056,-0.1068777 l -2.746101,0.097395 z m -0.159112,-4.5705239 2.627344,-0.090328 c 0.211431,-0.00689 0.415725,-0.033258 0.617657,-0.073609 0.201915,-0.04273 0.380075,-0.1187758 0.53686,-0.2304475 0.156871,-0.1117032 0.280316,-0.2613004 0.375335,-0.4513386 0.09498,-0.1900539 0.137736,-0.4418559 0.125841,-0.7530484 -0.01207,-0.3278267 -0.07119,-0.5820072 -0.185297,-0.7649254 -0.111706,-0.1852968 -0.244667,-0.3207068 -0.399089,-0.4085876 -0.154458,-0.087918 -0.320689,-0.1401513 -0.496488,-0.1567013 -0.175781,-0.018944 -0.334945,-0.023786 -0.475111,-0.018944 l -2.826881,0.097395 z m 14.474156,0.8314307 -0.304071,2.5798362 -1.140261,0.2613 1.18777,-8.8892618 1.251915,-0.2874331 4.850841,7.494816 -1.206767,0.27794 -1.358811,-2.1926032 z m 2.655856,-1.6438643 -2.038217,-3.3210076 -0.02379,0.00526 -0.477491,3.9029938 z m 10.944098,-5.43522856 3.252104,-1.72702474 2.107102,3.9624001 -0.650893,0.3468184 -0.748291,-0.8338092 c -0.06654,0.4846122 -0.26132,0.9502222 -0.584387,1.3896837 -0.323068,0.4394826 -0.736414,0.7958206 -1.247157,1.0666195 -0.315948,0.1685942 -0.608142,0.289817 -0.87658,0.368215 -0.268422,0.076025 -0.513105,0.1187758 -0.736414,0.1330841 -0.223291,0.012051 -0.427602,0.00158 -0.610503,-0.028469 -0.182918,-0.028469 -0.349218,-0.061711 -0.491747,-0.1022205 -0.425223,-0.1163604 -0.791042,-0.2779399 -1.102249,-0.4798709 -0.311191,-0.1995366 -0.57725,-0.418086 -0.79818,-0.6532538 -0.223291,-0.2351888 -0.406209,-0.4751137 -0.553495,-0.7197958 -0.147217,-0.2423035 -0.273196,-0.4608581 -0.375335,-0.6532748 -0.242305,-0.453733 -0.413345,-0.9454651 -0.517863,-1.4728443 -0.104465,-0.52735801 -0.109292,-1.05235855 -0.01724,-1.57498052 0.09257,-0.52022236 0.299312,-1.01434888 0.61764,-1.47994838 0.31593,-0.4632314 0.779164,-0.8575791 1.384927,-1.1782701 0.344461,-0.1829182 0.717417,-0.3183282 1.121264,-0.4062089 0.40383,-0.085502 0.805299,-0.1068777 1.204388,-0.064127 0.39909,0.045151 0.781544,0.1685942 1.14976,0.3681993 0.368215,0.2019309 0.688904,0.496484 0.9621,0.8789599 l -0.96922,0.515481 c -0.254182,-0.2779347 -0.515502,-0.4774923 -0.786302,-0.5938843 -0.268439,-0.1163604 -0.536877,-0.1781611 -0.805316,-0.1805397 -0.266059,-0.00526 -0.525,0.033258 -0.774424,0.1117085 -0.247046,0.080671 -0.475112,0.1757983 -0.681785,0.2850704 -0.330187,0.1757825 -0.608141,0.4085875 -0.83619,0.6960259 -0.22567,0.2874332 -0.382454,0.61763843 -0.465596,0.988232 -0.0855,0.37295635 -0.09257,0.7791653 -0.02137,1.21626406 0.06895,0.43948254 0.235185,0.90507684 0.494108,1.39206764 0.201915,0.380092 0.434722,0.7316728 0.700781,1.057121 0.26606,0.3278214 0.570131,0.5867433 0.909834,0.7768025 0.339702,0.1900381 0.712658,0.2874331 1.123625,0.294553 0.408606,0.00689 0.862324,-0.1211859 1.358811,-0.3848334 0.185297,-0.097395 0.401469,-0.244682 0.650893,-0.4394773 0.251804,-0.1947953 0.453736,-0.4751137 0.612883,-0.8409344 0.190055,-0.4370987 0.25182,-0.8480648 0.185296,-1.2305355 -0.06654,-0.3848334 -0.206655,-0.7744239 -0.418086,-1.17587571 l -2.311396,1.23051971 z m 11.495214,-13.00844894 3.644074,4.0479038 c 0.287453,0.3183272 0.508365,0.6675284 0.665149,1.0452419 0.156699,0.377715 0.228066,0.7673056 0.216189,1.1663946 -0.01207,0.399089 -0.121187,0.8029352 -0.323085,1.2115227 -0.204294,0.4085928 -0.520242,0.8053033 -0.950206,1.1925152 -0.415725,0.3753507 -0.833811,0.6366512 -1.249536,0.7863168 -0.415725,0.1496288 -0.814814,0.2066566 -1.197269,0.173404 -0.380093,-0.033258 -0.738792,-0.1425615 -1.073737,-0.3302053 -0.334962,-0.185281 -0.634275,-0.4228431 -0.893215,-0.7126601 l -3.748591,-4.1619357 0.843309,-0.7577892 3.534799,3.9267516 c 0.301692,0.3349624 0.601022,0.5725087 0.893198,0.7126601 0.294572,0.1401461 0.577267,0.2090509 0.848085,0.2066881 0.2708,-0.00158 0.522603,-0.061711 0.757789,-0.1805555 0.235168,-0.1163604 0.448978,-0.2613004 0.639015,-0.4323416 0.192417,-0.1734039 0.361079,-0.3753349 0.510744,-0.6033828 0.152044,-0.2304317 0.247046,-0.4798709 0.289815,-0.7459337 0.04034,-0.2684204 0.0086,-0.5582532 -0.09257,-0.871819 -0.102225,-0.3111914 -0.304071,-0.6342589 -0.605763,-0.971583 l -3.551416,-3.9434039 z m 9.599561,-1.990707 1.49896,2.118979 -0.669907,0.957343 -5.067029,-7.399801 0.738792,-1.052362 8.618461,2.323273 -0.710276,1.01673 -2.477698,-0.722157 z m 0.874184,-3.0003 -3.736714,-1.10225 -0.01379,0.01896 2.254388,3.218851 z m 8.8940205,-8.858372 -0.4632367,1.035726 -3.0858187,-1.37305 -5.8699481,0.855187 0.53686,-1.206767 4.663184,-0.560632 -2.703351,-3.841248 0.541617,-1.216283 3.2924962,4.933999 z m -101.8677945,-52.962608 -0.54162,0.902698 -6.68001,-4.01465 1.85528,-3.088201 c 0.16394,-0.273188 0.35158,-0.524993 0.56776,-0.755423 0.2138,-0.230422 0.44897,-0.406217 0.70553,-0.532121 0.25657,-0.123531 0.53926,-0.180536 0.84807,-0.168662 0.30881,0.01431 0.6414,0.12591 0.99298,0.339699 0.24944,0.147286 0.44422,0.301698 0.58438,0.463231 0.14015,0.159164 0.24231,0.320701 0.30881,0.484614 0.069,0.161525 0.1093,0.325445 0.12585,0.486984 0.0172,0.161525 0.0238,0.313567 0.0238,0.456102 0.0926,-0.07126 0.19241,-0.137787 0.29695,-0.201918 0.10688,-0.06177 0.22567,-0.102156 0.36108,-0.123532 0.13549,-0.02141 0.28743,-0.01189 0.46085,0.02377 0.17342,0.03563 0.3777,0.121153 0.61764,0.256561 l 1.2424,0.672279 c 0.19004,0.104518 0.34208,0.166284 0.45374,0.182915 0.11394,0.01655 0.2518,-0.02141 0.41808,-0.116394 l 0.14963,0.09028 -0.66515,1.106999 c -0.1236,-0.03327 -0.27317,-0.0879 -0.44897,-0.161542 -0.17342,-0.07602 -0.3492,-0.156785 -0.52261,-0.244685 -0.1758,-0.0879 -0.33734,-0.175788 -0.48462,-0.258932 -0.14722,-0.08552 -0.25181,-0.144908 -0.31357,-0.182916 -0.13774,-0.08314 -0.28268,-0.154405 -0.43947,-0.220923 -0.15445,-0.06177 -0.31594,-0.0879 -0.47987,-0.07364 -0.16635,0.01655 -0.33018,0.08076 -0.49648,0.192415 -0.16394,0.111655 -0.32783,0.304069 -0.49173,0.577257 l -1.31368,2.185495 z m -3.63696,-2.185498 1.25667,-2.092844 c 0.10206,-0.168662 0.18528,-0.342076 0.25655,-0.517871 0.0665,-0.180538 0.0974,-0.356326 0.0903,-0.534492 -0.007,-0.178167 -0.0595,-0.351583 -0.16153,-0.522621 -0.0998,-0.168662 -0.27318,-0.327823 -0.5226,-0.47748 -0.26132,-0.156785 -0.48937,-0.237556 -0.6889,-0.244684 -0.19956,-0.0048 -0.37298,0.03089 -0.52025,0.106896 -0.14721,0.07602 -0.27081,0.178168 -0.37295,0.306448 -0.10223,0.128272 -0.18768,0.249433 -0.25418,0.361081 l -1.35408,2.252012 z m 16.065779,-11.680515 -4.406638,3.698711 -5.010011,-5.972099 4.34962,-3.648826 0.59864,0.715036 -3.54194,2.971798 1.5346,1.829163 3.268739,-2.741368 0.598643,0.715035 -3.266362,2.741369 1.674762,1.997828 3.601304,-3.021682 z m 5.394838,-8.250234 1.814908,-1.04762 c 0.206673,-0.11877 0.380093,-0.24705 0.522621,-0.38246 0.142563,-0.13777 0.249442,-0.28744 0.315948,-0.45373 0.06896,-0.1639 0.09033,-0.34445 0.06413,-0.53924 -0.02379,-0.1948 -0.09981,-0.40384 -0.230428,-0.62952 -0.1236,-0.2138 -0.261302,-0.37296 -0.413346,-0.47748 -0.152043,-0.10216 -0.313569,-0.16391 -0.482231,-0.18292 -0.171006,-0.019 -0.349201,0 -0.532119,0.0546 -0.185298,0.057 -0.370594,0.14015 -0.558253,0.24944 l -1.85292,1.06899 z m 2.095225,3.629818 -0.912213,0.527365 -3.898255,-6.751273 3.038311,-1.75315 c 0.313586,-0.18054 0.620018,-0.29694 0.92171,-0.34445 0.301692,-0.0499 0.589145,-0.0404 0.857566,0.0309 0.270817,0.0689 0.51788,0.1948 0.74355,0.37295 0.223308,0.18055 0.415725,0.40622 0.574888,0.68416 0.135323,0.23043 0.235169,0.48699 0.299313,0.7673 0.06654,0.27794 0.07602,0.56063 0.03086,0.84569 -0.04275,0.28507 -0.159112,0.56063 -0.34446,0.82669 -0.18528,0.26606 -0.460838,0.50361 -0.831433,0.71741 l -2.126098,1.22815 z m 16.419715,-13.343398 0.70316,5.01001 c 0.05706,0.39196 0.04741,0.7768 -0.02844,1.14976 -0.07602,0.37058 -0.223308,0.70791 -0.439479,1.0096 -0.218551,0.29932 -0.510744,0.55588 -0.878942,0.76492 -0.368216,0.20905 -0.819572,0.34921 -1.349313,0.42523 -0.515484,0.0713 -0.973961,0.057 -1.370689,-0.0428 -0.399089,-0.10215 -0.734034,-0.26368 -1.011971,-0.48936 -0.275558,-0.22329 -0.494109,-0.49411 -0.65803,-0.81243 -0.161525,-0.31595 -0.266059,-0.65327 -0.315948,-1.01198 l -0.724536,-5.15016 1.042863,-0.14729 0.684163,4.86034 c 0.05706,0.41573 0.163939,0.75305 0.315948,1.01199 0.154458,0.2613 0.334945,0.46085 0.546376,0.59863 0.209035,0.13779 0.434722,0.2233 0.677027,0.25656 0.242288,0.0309 0.479852,0.0309 0.717399,-0.002 0.235186,-0.0333 0.472733,-0.0998 0.705539,-0.19955 0.235186,-0.0974 0.43948,-0.23993 0.610521,-0.42521 0.171006,-0.18292 0.296934,-0.42285 0.380075,-0.71505 0.08309,-0.29456 0.09498,-0.64851 0.03793,-1.06424 l -0.686526,-4.87935 z m 10.312203,2.60121 1.895671,0.13303 c 0.506003,0.0333 0.907472,-0.0285 1.209164,-0.19004 0.301691,-0.15916 0.470353,-0.47748 0.503607,-0.95496 0.02379,-0.36821 -0.07844,-0.65803 -0.308812,-0.86945 -0.232806,-0.21142 -0.641394,-0.3397 -1.225781,-0.38009 l -1.907566,-0.13303 z m -0.819555,-3.36613 3.420765,0.23993 c 0.361097,0.0238 0.677045,0.0974 0.943104,0.2233 0.266043,0.12353 0.486972,0.28031 0.658013,0.47035 0.171006,0.19005 0.296951,0.40622 0.372956,0.65091 0.07843,0.24467 0.106879,0.50123 0.08792,0.76729 -0.01034,0.13065 -0.03327,0.26606 -0.07119,0.40859 -0.04033,0.14253 -0.102224,0.28507 -0.187676,0.4276 -0.08792,0.1449 -0.201915,0.27794 -0.344443,0.40147 -0.142563,0.12353 -0.325447,0.22805 -0.548755,0.31594 0.125842,0.0594 0.26606,0.13303 0.422844,0.2233 0.159112,0.0926 0.304071,0.2138 0.43948,0.36346 0.133081,0.15203 0.242305,0.3397 0.323067,0.56775 0.08309,0.22568 0.111706,0.50599 0.09033,0.83857 -0.02379,0.30882 -0.102225,0.60101 -0.235169,0.86944 -0.135322,0.27082 -0.320706,0.50124 -0.555874,0.69604 -0.235185,0.19479 -0.520242,0.34207 -0.857583,0.44185 -0.337324,0.0998 -0.722157,0.13303 -1.1545,0.10452 l -3.34714,-0.23518 z m 0.567752,6.95082 2.242511,0.15678 c 0.548754,0.038 0.96922,-0.0618 1.261413,-0.29931 0.292193,-0.23756 0.453719,-0.57251 0.48461,-1.00486 0.01896,-0.27556 -0.01896,-0.50124 -0.11636,-0.67703 -0.09498,-0.17816 -0.228049,-0.32069 -0.394349,-0.43234 -0.166352,-0.10928 -0.356321,-0.18767 -0.570131,-0.23518 -0.216171,-0.0475 -0.429963,-0.0784 -0.646152,-0.0926 l -2.069074,-0.14491 z m 13.542929,2.27101 3.779483,1.15452 -0.273179,0.8932 -4.784335,-1.46333 2.278143,-7.45444 1.007231,0.30882 z m 11.138911,5.675163 -0.919349,-0.510738 3.777121,-6.817795 0.921693,0.51074 z m 14.405254,3.914887 c 0.168592,-0.306448 0.261301,-0.593884 0.275557,-0.862323 0.01379,-0.270808 -0.01896,-0.517864 -0.0974,-0.741167 -0.08085,-0.220924 -0.192417,-0.422845 -0.334945,-0.598632 -0.142563,-0.178166 -0.287453,-0.327828 -0.427602,-0.451355 -0.268439,-0.232799 -0.560633,-0.401466 -0.878942,-0.503615 -0.315948,-0.104517 -0.648532,-0.135409 -0.990613,-0.09264 -0.344444,0.04275 -0.693645,0.163921 -1.047604,0.36821 -0.356338,0.204298 -0.700782,0.501239 -1.038105,0.888452 -0.29933,0.344449 -0.546376,0.696033 -0.743551,1.052364 -0.194795,0.358705 -0.311189,0.712659 -0.349201,1.064241 -0.03568,0.351576 0.01379,0.698404 0.154458,1.04048 0.140149,0.339706 0.391952,0.669907 0.757789,0.988224 0.130668,0.114033 0.296934,0.220924 0.496487,0.323073 0.199537,0.102155 0.429982,0.166283 0.691283,0.190043 0.25894,0.02615 0.551134,-0.0071 0.869444,-0.0974 0.318327,-0.09266 0.660409,-0.282693 1.026228,-0.570129 l 0.769614,0.6699 c -0.377696,0.32545 -0.741154,0.558252 -1.092751,0.703159 -0.351563,0.147286 -0.686525,0.232801 -1.002473,0.258933 -0.315931,0.02851 -0.610503,0.0095 -0.881321,-0.05461 -0.2708,-0.06177 -0.513105,-0.142529 -0.729294,-0.244684 -0.213792,-0.09978 -0.39671,-0.20667 -0.548737,-0.318317 -0.152044,-0.114033 -0.263681,-0.199548 -0.332584,-0.261311 -0.334945,-0.289814 -0.61052,-0.62952 -0.826674,-1.019105 -0.216188,-0.391963 -0.342081,-0.817184 -0.372973,-1.282794 -0.03327,-0.465601 0.04741,-0.962092 0.244684,-1.491834 0.197174,-0.529748 0.539256,-1.073746 1.028606,-1.636746 0.39435,-0.453726 0.817194,-0.812436 1.266172,-1.078496 0.451339,-0.263682 0.912195,-0.429972 1.382548,-0.496484 0.470371,-0.06652 0.940725,-0.02615 1.41344,0.121153 0.470372,0.147286 0.91935,0.40384 1.346934,0.774421 0.375335,0.327829 0.660409,0.672277 0.855205,1.033359 0.194795,0.361082 0.315948,0.717413 0.361078,1.066618 0.04517,0.351577 0.02379,0.693655 -0.06413,1.023854 -0.08792,0.332578 -0.223291,0.63427 -0.410967,0.902709 z m 4.451751,9.967756 -2.335151,0.591505 -0.608142,-0.897951 8.102962,-1.92894 0.66753,0.990601 -4.884113,6.696646 -0.643756,-0.952602 1.451451,-1.907554 z m 2.311395,1.753145 2.19976,-2.872026 -0.01207,-0.01655 -3.541935,0.881325 z m -67.94037,4.202323 c 0.104465,0 0.213809,0 0.325464,0 0.111706,0 0.22329,-0.0086 0.330187,-0.03086 0.109292,-0.01896 0.211431,-0.05223 0.306449,-0.09499 0.0974,-0.04517 0.175782,-0.106878 0.239927,-0.187658 0.08085,-0.111706 0.130668,-0.247063 0.152043,-0.408606 0.01896,-0.159112 0.02844,-0.349201 0.02844,-0.565372 0,-0.334944 -0.05465,-0.589131 -0.168593,-0.762545 -0.111706,-0.171042 -0.3587,-0.261311 -0.74355,-0.270811 h -0.781544 v 2.320903 z m -1.993069,5.3711 v -9.0128 h 2.715243 c 0.18528,0 0.363458,0.0048 0.541618,0.01898 0.175781,0.01189 0.344461,0.03801 0.503607,0.08314 0.161525,0.04275 0.315966,0.109275 0.463234,0.197169 0.147217,0.09028 0.282695,0.209049 0.401469,0.361082 0.192417,0.249433 0.315948,0.505991 0.368215,0.769679 0.05223,0.263683 0.07843,0.548746 0.07843,0.85282 0,0.192417 -0.01379,0.384833 -0.04275,0.57725 -0.02844,0.192417 -0.08068,0.370577 -0.156698,0.534498 -0.07602,0.163939 -0.185297,0.313569 -0.325464,0.444221 -0.137736,0.133081 -0.325446,0.242305 -0.558253,0.330204 v 0.02379 c 0.482248,0.06413 0.819572,0.282695 1.016747,0.655651 0.194796,0.372955 0.294555,0.850446 0.294555,1.437194 0,0.182918 -0.01035,0.368216 -0.02379,0.551134 -0.01724,0.18528 -0.04982,0.368198 -0.0974,0.553495 -0.185297,0.57725 -0.448978,0.990596 -0.793438,1.242417 -0.344443,0.254165 -0.817176,0.380075 -1.418181,0.380075 z m 7.684857,-5.228572 c 0.01379,-0.57725 0.05223,-1.109369 0.10688,-1.596358 0.05706,-0.489359 0.182918,-0.912202 0.377713,-1.268533 0.197175,-0.356334 0.486989,-0.634272 0.871822,-0.836192 0.384834,-0.199541 0.914575,-0.299318 1.586861,-0.299318 0.672268,0 1.202026,0.09978 1.586859,0.299318 0.384834,0.20192 0.674648,0.479858 0.871822,0.836192 0.194796,0.356331 0.320707,0.779174 0.377714,1.268533 0.05465,0.486989 0.09257,1.019108 0.106879,1.596358 v 1.287547 c 0,0.601005 -0.02379,1.154517 -0.0712,1.662882 -0.04741,0.508365 -0.171006,0.947844 -0.365836,1.316042 -0.197175,0.368199 -0.49173,0.65803 -0.8837,0.864703 -0.39197,0.209035 -0.933588,0.31357 -1.622492,0.31357 -0.688904,0 -1.230522,-0.104466 -1.622492,-0.31357 -0.39197,-0.206673 -0.686525,-0.496504 -0.883699,-0.864703 -0.194796,-0.368198 -0.318327,-0.807677 -0.365837,-1.316042 -0.04741,-0.508365 -0.07119,-1.061877 -0.07119,-1.662882 z m 1.729406,2.128478 c 0,0.182918 0.0086,0.389591 0.03086,0.61764 0.01896,0.228049 0.06654,0.441858 0.142563,0.636654 0.07602,0.197175 0.197157,0.363458 0.361078,0.498866 0.163939,0.137736 0.391953,0.204294 0.679389,0.204294 0.30407,0 0.536877,-0.06654 0.696041,-0.204294 0.161525,-0.135495 0.280315,-0.308828 0.361078,-0.522621 0.08085,-0.21143 0.125841,-0.439479 0.137736,-0.684163 0.01207,-0.244667 0.01896,-0.475094 0.01896,-0.691266 v -2.306655 c 0,-0.185297 -0.0052,-0.40621 -0.01207,-0.667529 -0.0086,-0.261302 -0.04982,-0.515484 -0.125842,-0.762543 -0.07602,-0.249435 -0.197157,-0.45848 -0.361078,-0.631895 -0.163938,-0.17104 -0.401468,-0.256557 -0.715038,-0.256557 -0.327825,0 -0.57725,0.08552 -0.745912,0.256557 -0.166351,0.173415 -0.285074,0.380084 -0.353958,0.620018 -0.06654,0.239922 -0.104466,0.489364 -0.10688,0.743546 -0.0052,0.256562 -0.0069,0.472733 -0.0069,0.650893 z m 9.209954,1.776915 c 0.377696,0 0.672268,-0.05223 0.883699,-0.161525 0.211414,-0.106879 0.372956,-0.294573 0.482231,-0.558253 0.106879,-0.263681 0.17342,-0.615279 0.197175,-1.052362 0.02379,-0.434721 0.03568,-0.978736 0.03568,-1.62725 0,-0.52974 -0.01724,-0.981097 -0.04758,-1.358811 -0.03327,-0.375335 -0.09498,-0.684146 -0.185297,-0.924081 -0.09257,-0.239929 -0.21855,-0.415716 -0.372956,-0.522617 -0.156698,-0.109276 -0.363457,-0.163904 -0.620019,-0.163904 h -1.104628 v 6.368803 z m -2.413554,1.323179 v -9.0128 h 3.508667 c 0.104465,0 0.228049,0.01431 0.372973,0.04275 0.142563,0.02851 0.294555,0.07838 0.456097,0.154406 0.159112,0.07602 0.320689,0.180544 0.479853,0.313574 0.161525,0.130651 0.30407,0.301694 0.43236,0.51074 0.192416,0.311196 0.323067,0.719785 0.391952,1.225785 0.06654,0.503607 0.102225,1.133125 0.102225,1.886173 0,0.441841 -0.0086,0.893198 -0.0262,1.358794 -0.01379,0.463234 -0.06413,0.907454 -0.14963,1.327937 -0.08309,0.420465 -0.218551,0.800541 -0.408588,1.140261 -0.187676,0.342064 -0.453736,0.610503 -0.798179,0.812418 -0.185298,0.111706 -0.387213,0.180557 -0.608142,0.204311 -0.21855,0.02379 -0.434722,0.03568 -0.641394,0.03568 z m 8.29538,0 v -9.0128 h 4.736825 v 1.320804 h -3.052567 v 2.273387 h 2.810262 v 1.3208 h -2.810262 v 2.77463 h 3.052567 v 1.323179 z m 6.953133,-5.228572 c 0.01724,-0.57725 0.05223,-1.109369 0.106879,-1.596358 0.05706,-0.489359 0.182918,-0.912202 0.380093,-1.268533 0.194796,-0.356334 0.486989,-0.634272 0.869443,-0.836192 0.384834,-0.199541 0.914574,-0.299318 1.58686,-0.299318 0.361079,0 0.693662,0.03089 0.997733,0.09028 0.304071,0.05942 0.574871,0.161543 0.812418,0.306447 0.235186,0.144907 0.439479,0.339699 0.61052,0.589136 0.17342,0.247052 0.30645,0.567748 0.40383,0.962089 0.04034,0.182916 0.06171,0.365832 0.06654,0.543992 0.0017,0.180539 0.0086,0.363458 0.01724,0.548755 h -1.681863 c -0.0069,-0.232807 -0.02137,-0.446599 -0.04033,-0.643773 -0.02138,-0.197168 -0.0712,-0.370579 -0.152044,-0.522611 -0.08085,-0.152044 -0.199554,-0.273188 -0.361096,-0.36584 -0.159112,-0.09264 -0.382454,-0.142528 -0.672269,-0.149648 -0.327825,0 -0.57725,0.08552 -0.74355,0.256558 -0.168593,0.173414 -0.287436,0.380084 -0.356321,0.620017 -0.06654,0.239924 -0.104465,0.489349 -0.106879,0.743531 -0.0052,0.256562 -0.0069,0.47275 -0.0069,0.65091 v 2.499055 c 0,0.182918 0.0086,0.389591 0.03086,0.61764 0.01896,0.228049 0.06895,0.441859 0.144976,0.636654 0.07602,0.197174 0.194796,0.363458 0.361079,0.498866 0.161525,0.137736 0.389591,0.204295 0.677026,0.204295 0.239926,0 0.44422,-0.05947 0.608142,-0.18054 0.163939,-0.118773 0.294572,-0.285074 0.389591,-0.496487 0.09498,-0.213792 0.161525,-0.465613 0.197174,-0.757807 0.03793,-0.292176 0.05223,-0.608141 0.04275,-0.943086 h -1.164015 v -1.323179 h 2.798385 v 4.843721 h -1.261414 v -1.033347 h -0.02379 c -0.08085,0.232789 -0.180539,0.425223 -0.301692,0.582008 -0.118773,0.156698 -0.249424,0.282677 -0.389591,0.380075 -0.140149,0.09498 -0.285056,0.166352 -0.439479,0.209052 -0.152044,0.04517 -0.304071,0.0712 -0.456098,0.07843 -0.688904,0 -1.22816,-0.104465 -1.622492,-0.313569 -0.39197,-0.206673 -0.686525,-0.496488 -0.8837,-0.864703 -0.194795,-0.368198 -0.315948,-0.807677 -0.365836,-1.316042 -0.04741,-0.508365 -0.0712,-1.06186 -0.0712,-1.662865 z m 7.839281,5.228572 2.152232,-9.0128 h 2.271024 l 2.042957,9.0128 h -1.803031 l -0.444237,-2.282901 h -1.971694 l -0.44422,2.282901 z m 2.513311,-3.60608 h 1.441953 l -0.456098,-2.558442 c -0.04034,-0.209051 -0.07361,-0.418103 -0.0974,-0.624776 -0.02379,-0.209043 -0.04741,-0.418093 -0.07119,-0.624763 -0.01035,-0.104517 -0.01724,-0.206669 -0.02379,-0.306446 -0.01035,-0.09976 -0.02138,-0.199542 -0.03793,-0.294562 h -0.02379 c -0.01379,0.09502 -0.02844,0.194794 -0.03568,0.294562 -0.0069,0.09978 -0.01724,0.20192 -0.02379,0.306446 -0.02379,0.20667 -0.04758,0.41572 -0.07119,0.624763 -0.02379,0.206673 -0.05706,0.415725 -0.0974,0.624776 z m 0,0"
       id="path2" />
  </g>
</svg>
