<?xml version="1.0" encoding="UTF-8" standalone="no"?>
<!-- Created with Inkscape (http://www.inkscape.org/) -->

<svg
   xmlns:dc="http://purl.org/dc/elements/1.1/"
   xmlns:cc="http://creativecommons.org/ns#"
   xmlns:rdf="http://www.w3.org/1999/02/22-rdf-syntax-ns#"
   xmlns:svg="http://www.w3.org/2000/svg"
   xmlns="http://www.w3.org/2000/svg"
   xmlns:sodipodi="http://sodipodi.sourceforge.net/DTD/sodipodi-0.dtd"
   xmlns:inkscape="http://www.inkscape.org/namespaces/inkscape"
   width="23.564535mm"
   height="10.395518mm"
   viewBox="0 0 23.564535 10.395518"
   version="1.1"
   id="svg1429"
   inkscape:version="0.92.4 5da689c313, 2019-01-14"
   sodipodi:docname="logo_header.svg">
  <defs
     id="defs1423" />
  <sodipodi:namedview
     id="base"
     pagecolor="#ffffff"
     bordercolor="#666666"
     borderopacity="1.0"
     inkscape:pageopacity="0.0"
     inkscape:pageshadow="2"
     inkscape:zoom="5.6"
     inkscape:cx="77.414078"
     inkscape:cy="-20.343302"
     inkscape:document-units="mm"
     inkscape:current-layer="layer1"
     showgrid="false"
     fit-margin-top="0"
     fit-margin-left="0"
     fit-margin-right="0"
     fit-margin-bottom="0"
     inkscape:window-width="3200"
     inkscape:window-height="1672"
     inkscape:window-x="0"
     inkscape:window-y="54"
     inkscape:window-maximized="1" />
  <metadata
     id="metadata1426">
    <rdf:RDF>
      <cc:Work
         rdf:about="">
        <dc:format>image/svg+xml</dc:format>
        <dc:type
           rdf:resource="http://purl.org/dc/dcmitype/StillImage" />
        <dc:title></dc:title>
      </cc:Work>
    </rdf:RDF>
  </metadata>
  <g
     inkscape:label="Capa 1"
     inkscape:groupmode="layer"
     id="layer1"
     transform="translate(-64.072231,-69.623108)">
    <path
       inkscape:connector-curvature="0"
       style="fill:#f2f2f2;fill-opacity:1;fill-rule:nonzero;stroke:none;stroke-width:0.08427552"
       d="m 65.439715,74.116379 c -0.0039,-0.04214 -0.0059,-0.08658 -0.0059,-0.132668 0,-0.04609 -0.002,-0.09218 -0.0056,-0.138594 0,-0.03457 -9.98e-4,-0.06617 -0.0029,-0.09514 -0.002,-0.02864 -0.01054,-0.06057 -0.02601,-0.09514 -0.0039,-0.01152 -0.01251,-0.02963 -0.02601,-0.05465 -0.0135,-0.02535 -0.0316,-0.04905 -0.05465,-0.07242 -0.02304,-0.02304 -0.05103,-0.04312 -0.08362,-0.06057 -0.03292,-0.01712 -0.07242,-0.02568 -0.118513,-0.02568 -0.04214,0 -0.07506,0.0046 -0.0981,0.01416 -0.02304,0.0095 -0.04214,0.01843 -0.05761,0.02601 -0.06551,0.03851 -0.10765,0.08658 -0.127072,0.144189 -0.01909,0.05794 -0.03259,0.125097 -0.04016,0.20213 -0.0076,0.199825 -0.01547,0.398005 -0.02304,0.594208 -0.0079,0.196204 -0.01152,0.394383 -0.01152,0.594208 0,0.17316 0.0036,0.342369 0.01152,0.507958 0.0076,0.165259 0.01712,0.334468 0.02864,0.507629 0.0039,0.01942 0.0069,0.0395 0.0089,0.06057 0.0016,0.0214 0.0066,0.04345 0.01415,0.0665 0.0039,0.01547 0.0099,0.03753 0.01745,0.06617 0.0076,0.02897 0.02206,0.05695 0.04313,0.08362 0.0214,0.02699 0.05004,0.05004 0.08658,0.06946 0.03654,0.01909 0.08395,0.02864 0.141557,0.02864 0.08065,0 0.153737,-0.0316 0.219248,-0.09514 0.06518,-0.06354 0.0981,-0.179744 0.0981,-0.348954 0,-0.05399 -9.98e-4,-0.107648 -0.0029,-0.161637 -0.002,-0.05366 -0.0029,-0.107649 -0.0029,-0.161309 0,-0.05037 9.98e-4,-0.09909 0.0029,-0.147482 0.002,-0.04806 0.0029,-0.09679 0.0029,-0.147153 h -0.305829 v -0.60573 h 0.940528 v 2.198405 H 65.474307 V 76.70127 c -0.08856,0.08856 -0.172173,0.157688 -0.250852,0.207729 -0.07901,0.05004 -0.180074,0.07703 -0.303194,0.08098 -0.0076,0 -0.03259,-9.48e-4 -0.07473,-0.0029 -0.04247,-0.0019 -0.08098,-0.0069 -0.11555,-0.01448 -0.138594,-0.02305 -0.241304,-0.06354 -0.308791,-0.121147 -0.06716,-0.05761 -0.118182,-0.1116 -0.152749,-0.161638 -0.07308,-0.111599 -0.118183,-0.227807 -0.13563,-0.348953 -0.01745,-0.121146 -0.02996,-0.247231 -0.03753,-0.377923 -0.0076,-0.173159 -0.0135,-0.344344 -0.01745,-0.513554 -0.0036,-0.16921 -0.0056,-0.340394 -0.0056,-0.513554 0,-0.196204 0.0029,-0.392408 0.0086,-0.588612 0.0059,-0.196204 0.01251,-0.392079 0.02008,-0.588282 0.0079,-0.111599 0.02041,-0.209702 0.03753,-0.294307 0.01745,-0.0846 0.05893,-0.17316 0.12411,-0.265336 0.05004,-0.06946 0.115549,-0.131021 0.196203,-0.184681 0.08098,-0.05399 0.209702,-0.09646 0.386812,-0.127072 0.01909,-0.0039 0.06123,-0.0095 0.126742,-0.01745 0.06551,-0.0076 0.132668,-0.01152 0.201801,-0.01152 0.02699,0 0.0609,9.97e-4 0.101064,0.0029 0.04049,0.002 0.09152,0.0086 0.153079,0.02008 0.02667,0.0079 0.06913,0.0214 0.126743,0.04049 0.05794,0.01942 0.117525,0.04905 0.179085,0.08954 0.06156,0.04049 0.119171,0.09218 0.173159,0.155713 0.05366,0.06354 0.09218,0.141227 0.115222,0.233733 0.01909,0.06913 0.03062,0.164271 0.03457,0.285417 0.0039,0.121475 0.0059,0.264678 0.0059,0.429937 z m 2.066396,-1.228908 v 4.056087 h -0.681117 v -4.056087 z m 2.118081,0.01152 0.703833,4.038971 h -0.674863 l -0.167563,-1.090644 h -0.605731 l -0.150115,1.090644 h -0.669266 l 0.66367,-4.038971 z m -0.224844,2.377164 -0.248218,-1.9041 c -0.01547,0.311753 -0.03851,0.623177 -0.06913,0.934931 -0.01547,0.161309 -0.03292,0.322946 -0.05201,0.484584 -0.01943,0.161637 -0.04049,0.322947 -0.06354,0.484585 z m 2.758707,-1.067272 c -0.0039,-0.06551 -0.0059,-0.131021 -0.0059,-0.196203 0,-0.06551 -0.002,-0.131022 -0.0056,-0.196204 0,-0.07703 -0.0049,-0.146165 -0.01448,-0.207726 -0.0099,-0.06156 -0.04708,-0.119171 -0.112587,-0.17316 -0.06156,-0.04247 -0.125097,-0.06353 -0.190278,-0.06353 -0.05794,0 -0.109625,0.01349 -0.156042,0.04049 -0.06518,0.03457 -0.106662,0.0846 -0.124109,0.150116 -0.01712,0.06518 -0.02963,0.13629 -0.0372,0.213322 -0.0079,0.192254 -0.01448,0.382861 -0.02041,0.571165 -0.0056,0.188632 -0.0086,0.37891 -0.0086,0.571164 0,0.35027 0.0056,0.704161 0.01712,1.062003 0.0079,0.115221 0.02041,0.19785 0.03753,0.247889 0.01745,0.05004 0.04938,0.09218 0.09547,0.127071 0.01514,0.01514 0.04115,0.0316 0.07769,0.04905 0.03654,0.01712 0.08164,0.02601 0.13563,0.02601 0.07308,0 0.134644,-0.02699 0.184682,-0.08098 0.06551,-0.06518 0.09909,-0.146165 0.101065,-0.242292 0.002,-0.09613 0.0046,-0.186657 0.0086,-0.271262 0,-0.06156 9.98e-4,-0.123121 0.0029,-0.184682 0.002,-0.06156 0.0029,-0.12312 0.0029,-0.184353 h 0.657744 c 0,0.09613 9.48e-4,0.191267 0.0029,0.285418 0.0017,0.09415 6.98e-4,0.18962 -0.0029,0.285747 0,0.01909 -9.48e-4,0.06518 -0.0029,0.138264 -0.0019,0.07308 -0.01448,0.146166 -0.03753,0.219249 -0.01548,0.06551 -0.04313,0.132997 -0.08362,0.202129 -0.04049,0.06913 -0.09712,0.132668 -0.170197,0.190279 -0.07308,0.05761 -0.162627,0.105672 -0.2683,0.144188 -0.106003,0.03852 -0.233733,0.05794 -0.383849,0.05794 -0.01909,0 -0.05366,-9.48e-4 -0.103698,-0.0029 -0.05004,-0.0019 -0.108636,-0.0076 -0.176123,-0.01744 -0.06716,-0.0096 -0.136618,-0.02601 -0.207726,-0.04905 -0.07111,-0.02305 -0.137605,-0.05366 -0.199166,-0.09218 -0.03456,-0.02304 -0.06419,-0.04609 -0.08921,-0.06913 -0.02502,-0.02337 -0.05103,-0.05201 -0.07802,-0.08658 -0.03852,-0.05004 -0.06716,-0.09547 -0.08658,-0.135631 -0.01909,-0.04049 -0.03259,-0.07407 -0.04016,-0.101065 -0.01942,-0.06551 -0.03391,-0.136619 -0.04345,-0.213322 -0.0095,-0.07703 -0.01613,-0.150116 -0.02008,-0.219248 -0.0079,-0.188632 -0.0135,-0.377265 -0.01745,-0.565569 -0.0036,-0.188632 -0.0056,-0.37891 -0.0056,-0.571163 0,-0.111599 6.49e-4,-0.222211 0.0026,-0.331835 0.002,-0.109624 0.0049,-0.220236 0.0089,-0.331835 0.0076,-0.100077 0.01448,-0.199167 0.02008,-0.296939 0.0059,-0.0981 0.01251,-0.197192 0.02008,-0.297269 0.0079,-0.05004 0.01745,-0.0981 0.02897,-0.144191 0.01152,-0.04609 0.02699,-0.09251 0.04609,-0.138593 0.04247,-0.09613 0.09448,-0.17316 0.156042,-0.23077 0.06123,-0.05761 0.12378,-0.103041 0.187315,-0.135631 0.06354,-0.03259 0.123122,-0.05563 0.179085,-0.06913 0.05564,-0.0135 0.09712,-0.02206 0.12378,-0.02601 0.02699,-0.0039 0.06847,-0.0086 0.124109,-0.01449 0.05596,-0.0056 0.120159,-0.0086 0.193241,-0.0086 0.05399,0 0.13201,0.0066 0.233733,0.02008 0.102053,0.0135 0.212664,0.0586 0.331835,0.135631 0.01909,0.01547 0.04806,0.03852 0.08658,0.06913 0.03851,0.03095 0.07868,0.07308 0.121146,0.127072 0.04247,0.05761 0.07407,0.117196 0.09514,0.178756 0.02107,0.06156 0.03753,0.131681 0.04905,0.21069 0.01151,0.07901 0.01844,0.169209 0.0204,0.271261 0.0017,0.101723 0.0026,0.220236 0.0026,0.354878 z m 1.206523,0.842097 c 0,-0.17283 9.47e-4,-0.345003 0.0029,-0.516187 0.0019,-0.171184 0.0046,-0.345332 0.0086,-0.522113 0.0039,-0.146166 0.0135,-0.291343 0.02864,-0.435533 0.01548,-0.144519 0.06354,-0.270275 0.144519,-0.377924 0.03852,-0.05399 0.07868,-0.09646 0.121147,-0.127071 0.04214,-0.03095 0.07473,-0.05399 0.0981,-0.06946 0.123123,-0.0767 0.24328,-0.122134 0.360476,-0.135302 0.117525,-0.01349 0.199168,-0.02041 0.245255,-0.02041 0.03456,0 0.07802,9.98e-4 0.130035,0.0029 0.05169,0.002 0.116207,0.01251 0.19324,0.0316 0.03819,0.0079 0.08757,0.02041 0.147154,0.03753 0.05958,0.01745 0.121147,0.04741 0.184682,0.08954 0.06321,0.04214 0.122793,0.100077 0.178756,0.173159 0.05563,0.07308 0.09711,0.167235 0.123779,0.282784 0.01942,0.0846 0.02996,0.170856 0.03193,0.259411 0.0019,0.08855 0.0046,0.219248 0.0086,0.392408 0,0.06913 9.48e-4,0.139582 0.0029,0.210689 0.0019,0.07111 0.0029,0.143203 0.0029,0.216285 0.0036,0.123121 0.0056,0.244267 0.0056,0.363438 0,0.1195 0,0.240646 0,0.363767 0,0.1116 0,0.22287 0,0.334469 0,0.111599 -0.0019,0.223199 -0.0056,0.334798 -0.0079,0.138264 -0.01942,0.267311 -0.03489,0.386481 -0.01515,0.119172 -0.07111,0.236697 -0.167233,0.351917 -0.06913,0.08855 -0.163285,0.160649 -0.282785,0.216614 -0.119171,0.05564 -0.295953,0.08362 -0.530671,0.08362 -0.111601,0 -0.220239,-0.01152 -0.32591,-0.03489 -0.106003,-0.02305 -0.208714,-0.06716 -0.308791,-0.132668 -0.04609,-0.03062 -0.08263,-0.06123 -0.109624,-0.09218 -0.02699,-0.03095 -0.04806,-0.05596 -0.06354,-0.07506 -0.05366,-0.07703 -0.0902,-0.157688 -0.109625,-0.242292 -0.01909,-0.0846 -0.03259,-0.142215 -0.04049,-0.17316 -0.01909,-0.127072 -0.03061,-0.283772 -0.03456,-0.470099 -0.0036,-0.186658 -0.0056,-0.422365 -0.0056,-0.707125 z m 0.686714,0.340724 c 0,0.0846 0,0.166247 0,0.245255 0,0.07868 0.0017,0.156699 0.0056,0.233404 0.0039,0.09646 0.0086,0.174147 0.01448,0.233732 0.0056,0.05959 0.01844,0.110612 0.03753,0.153079 0.05366,0.123121 0.149785,0.184682 0.288377,0.184682 0.05761,0 0.109625,-0.01547 0.155715,-0.04642 0.05004,-0.03062 0.08296,-0.0721 0.0981,-0.123781 0.01548,-0.05201 0.027,-0.106991 0.03489,-0.1646 0.01152,-0.08065 0.01909,-0.201801 0.02305,-0.363439 0.0036,-0.161638 0.0056,-0.351915 0.0056,-0.571163 0,-0.181061 -9.48e-4,-0.358831 -0.0029,-0.533965 -0.0017,-0.174806 -0.0026,-0.350928 -0.0026,-0.52771 0,-0.150115 -0.0039,-0.277187 -0.01151,-0.380886 -0.0079,-0.104027 -0.02699,-0.182707 -0.05794,-0.236695 -0.01515,-0.01909 -0.04115,-0.04609 -0.07769,-0.08066 -0.03654,-0.03456 -0.08954,-0.05201 -0.158677,-0.05201 -0.06156,0 -0.12806,0.02107 -0.199166,0.06354 -0.07111,0.04247 -0.116208,0.127072 -0.135633,0.253814 -0.0036,0.02699 -0.0066,0.07111 -0.0086,0.132669 -0.0019,0.06156 -0.0039,0.134643 -0.0059,0.219247 -0.0019,0.0846 -0.0026,0.174148 -0.0026,0.2683 0,0.09448 0,0.187644 0,0.28015 z m 3.116219,-2.492713 c 0.04247,0.215298 0.08197,0.427962 0.118512,0.637663 0.03654,0.209373 0.07012,0.422036 0.100736,0.637334 0.03095,0.207725 0.05695,0.41644 0.07802,0.626141 0.02107,0.209701 0.04148,0.418414 0.06057,0.626141 0.0076,-0.134644 0.01811,-0.271262 0.03193,-0.409856 0.01316,-0.138264 0.02963,-0.274883 0.04872,-0.409527 0.01942,-0.134643 0.04247,-0.271261 0.06946,-0.409855 0.027,-0.138265 0.05201,-0.276858 0.07506,-0.415122 0.05366,-0.300232 0.09975,-0.596514 0.138265,-0.888515 h 1.050152 v 4.050162 h -0.6403 l 0.02864,-3.427314 -0.61725,3.421719 H 77.329138 L 76.729005,73.52217 v 3.415792 h -0.628776 v -4.044567 z m 4.455081,0.01152 v 0.617252 h -1.18282 v 1.033034 h 1.113688 v 0.582691 h -1.113688 v 1.165373 h 1.234834 v 0.629104 h -1.915624 v -4.027449 z m 2.441358,-0.01152 v 0.623179 h -0.709762 v 3.421387 H 82.684927 V 73.52217 h -0.70976 v -0.62318 z m 2.441355,0 v 0.623179 h -0.709757 v 3.421387 H 85.126281 V 73.522169 H 84.416524 V 72.89899 Z m 1.131462,-0.01152 v 4.056088 h -0.680786 v -4.056087 z m -11.637921,5.232654 0.303853,0.631079 0.694287,0.09415 -0.506643,0.483924 0.125425,0.689348 -0.616922,-0.332162 -0.616923,0.332162 0.125425,-0.689348 -0.50664,-0.483924 0.694285,-0.09415 z m 7.602904,0.794361 c 0,-0.02831 -4.99e-4,-0.05563 -0.0025,-0.08296 -0.002,-0.02699 -0.0076,-0.05103 -0.01711,-0.0721 -0.0096,-0.02073 -0.0237,-0.03786 -0.04246,-0.0507 -0.01846,-0.01283 -0.0441,-0.01942 -0.07703,-0.01942 -0.03951,0 -0.07111,0.0089 -0.09481,0.02699 -0.0237,0.01811 -0.03557,0.04872 -0.03557,0.09152 0,0.0237 0.0035,0.04444 0.01088,0.06189 0.0076,0.01744 0.01711,0.03292 0.02899,0.04642 0.01182,0.01383 0.02634,0.02634 0.0431,0.03753 0.01711,0.0112 0.03457,0.02305 0.05267,0.03556 0.01911,0.01252 0.04181,0.027 0.06847,0.04411 0.02664,0.01679 0.05333,0.03489 0.08066,0.05399 0.02699,0.01942 0.05267,0.03852 0.07703,0.05761 0.02435,0.01942 0.04475,0.03687 0.06189,0.05267 0.04051,0.03951 0.06847,0.07999 0.08394,0.121147 0.01517,0.04115 0.0227,0.08954 0.0227,0.144849 0,0.05991 -0.0095,0.112585 -0.02864,0.158344 -0.01941,0.04576 -0.0461,0.08395 -0.08066,0.114563 -0.03457,0.03029 -0.07571,0.05366 -0.123776,0.06946 -0.04809,0.01581 -0.100737,0.0237 -0.158349,0.0237 -0.0711,0 -0.131349,-0.0096 -0.1804,-0.02897 -0.04939,-0.01909 -0.08888,-0.04576 -0.1195,-0.07967 -0.03063,-0.03358 -0.05267,-0.0744 -0.06617,-0.121803 -0.01352,-0.0474 -0.0204,-0.09942 -0.0204,-0.156042 v -0.09316 h 0.237354 v 0.07473 c -0.0025,0.06189 0.0072,0.113244 0.02899,0.153406 0.02105,0.03984 0.06123,0.05992 0.120159,0.05992 0.0981,0 0.147483,-0.04971 0.147483,-0.149127 0,-0.0372 -0.0082,-0.06913 -0.02469,-0.0958 -0.01646,-0.02634 -0.03981,-0.05037 -0.07045,-0.07176 -0.03028,-0.0237 -0.06255,-0.04675 -0.09646,-0.06881 -0.03392,-0.02205 -0.06749,-0.04444 -0.100732,-0.06683 -0.03328,-0.02272 -0.06519,-0.04642 -0.0958,-0.07209 -0.03028,-0.02535 -0.05761,-0.05399 -0.08131,-0.08559 -0.04081,-0.05991 -0.06091,-0.124768 -0.06091,-0.194887 0,-0.109295 0.03028,-0.192912 0.09152,-0.249864 0.0609,-0.05695 0.154722,-0.08559 0.281137,-0.08559 0.09481,0 0.167234,0.01579 0.216944,0.0474 0.04969,0.0316 0.08592,0.06946 0.108305,0.113574 0.0227,0.04411 0.03557,0.08987 0.03916,0.137276 0.0035,0.0474 0.005,0.08691 0.005,0.118514 z m -1.630204,0.884565 v -1.270716 h 0.667617 v 0.186328 h -0.430267 v 0.320313 h 0.396362 v 0.186328 h -0.396362 v 0.391419 h 0.430267 V 79.79905 Z M 81.21932,78.528334 h 0.237355 v 1.270716 h -0.247561 l -0.184682,-0.452322 c -0.0316,-0.07572 -0.0609,-0.153736 -0.08724,-0.233734 -0.02667,-0.08032 -0.05399,-0.170525 -0.0823,-0.271261 h -0.0033 c 0.0043,0.053 0.0089,0.110612 0.01349,0.172831 0.0046,0.06222 0.0086,0.125425 0.01185,0.18995 0.0033,0.06419 0.0063,0.126741 0.0086,0.187974 0.0024,0.0609 0.0033,0.116865 0.0033,0.167892 v 0.23867 h -0.237355 v -1.270716 h 0.245914 l 0.184682,0.462527 c 0.03029,0.0744 0.05893,0.151433 0.08559,0.230442 0.02667,0.07901 0.05432,0.170525 0.08395,0.274553 h 0.0033 c -0.0046,-0.05761 -0.0089,-0.116866 -0.01283,-0.178096 -0.0039,-0.0609 -0.0076,-0.121806 -0.01087,-0.183036 -0.0036,-0.0609 -0.0063,-0.121147 -0.0086,-0.181063 -0.0024,-0.05991 -0.0033,-0.118512 -0.0033,-0.176452 z m -1.328656,1.270716 v -1.270716 h 0.237353 v 1.270716 z m -0.887856,-0.613301 c 0.01252,0.06419 0.02205,0.13563 0.02864,0.213323 0.0069,0.07802 0.01481,0.157687 0.02403,0.238998 h 0.0033 c 0.0024,-0.01579 0.0036,-0.03094 0.0043,-0.04576 2.39e-4,-0.01448 0.0019,-0.02963 0.0043,-0.04576 0.0043,-0.05399 0.0092,-0.108309 0.01417,-0.162625 0.0053,-0.05432 0.01218,-0.108309 0.0214,-0.162625 l 0.09481,-0.692969 h 0.245584 l -0.235379,1.270715 h -0.284756 l -0.09481,-0.501371 c -0.01252,-0.06782 -0.02172,-0.135303 -0.02798,-0.20279 -0.0063,-0.06683 -0.01383,-0.134643 -0.02305,-0.202458 h -0.0033 c -0.0089,0.06781 -0.01679,0.135631 -0.02272,0.202458 -0.0063,0.06749 -0.01582,0.134974 -0.02798,0.20279 l -0.08493,0.501371 h -0.284454 l -0.242621,-1.270715 h 0.245913 l 0.106663,0.692969 c 0.0092,0.05432 0.01612,0.108306 0.0214,0.162625 0.0049,0.05432 0.0096,0.108636 0.01417,0.162625 0.0024,0.01613 0.0036,0.03128 0.0043,0.04576 6.99e-4,0.01481 0.0012,0.02996 0.0026,0.04576 h 0.0033 c 0.0089,-0.08131 0.01744,-0.160981 0.02469,-0.239 0.0072,-0.07769 0.01713,-0.149128 0.02963,-0.213323 l 0.115221,-0.657415 h 0.196534 z m -5.482189,-0.323605 c 0.01252,0.0316 0.0237,0.06354 0.03325,0.0958 0.0096,0.03193 0.01713,0.06518 0.02272,0.09909 h 0.0033 c 0.0092,-0.04971 0.02073,-0.09317 0.0349,-0.130693 0.01414,-0.0372 0.02864,-0.07407 0.04312,-0.109955 l 0.113576,-0.28805 h 0.25941 l -0.335456,0.730169 v 0.540547 h -0.237353 v -0.540547 l -0.330518,-0.730169 h 0.25941 z m -1.280922,0.936906 v -1.270716 h 0.237025 v 1.08439 h 0.440801 v 0.186326 z m -0.761114,0 v -1.270716 h 0.237354 v 1.270716 z m -1.375732,0 h -0.237354 v -1.270716 h 0.377923 l 0.127071,0.589598 c 0.01021,0.04873 0.01876,0.09712 0.02535,0.145836 0.0069,0.04839 0.01284,0.09744 0.01876,0.147485 h 0.0033 c 0.0056,-0.06354 0.01087,-0.117525 0.01614,-0.162955 0.0049,-0.0451 0.01218,-0.08855 0.02107,-0.130366 l 0.127071,-0.589598 h 0.376277 V 79.79905 H 70.72142 v -0.399978 c 0,-0.126415 0.0013,-0.252499 0.0039,-0.378583 0.0029,-0.126082 0.0082,-0.252167 0.01613,-0.378581 h -0.0033 l -0.254144,1.157142 h -0.14419 L 70.09095,78.641908 h -0.0086 c 0.0079,0.126414 0.01317,0.252499 0.01613,0.378581 0.0026,0.126084 0.0043,0.252168 0.0043,0.378583 z m -1.215082,-0.508287 h 0.203446 l -0.06452,-0.360805 c -0.0056,-0.0293 -0.01021,-0.05893 -0.0135,-0.08822 -0.0036,-0.0293 -0.0069,-0.0586 -0.01021,-0.08823 -9.98e-4,-0.01448 -0.0023,-0.02897 -0.0033,-0.04313 -0.0013,-0.01417 -0.0029,-0.02798 -0.0053,-0.04148 h -0.0033 c -0.0023,0.0135 -0.0039,0.02733 -0.0049,0.04148 -0.0013,0.01417 -0.0023,0.02864 -0.0036,0.04313 -0.0033,0.02963 -0.0069,0.05893 -0.01021,0.08823 -0.0033,0.0293 -0.0079,0.05893 -0.01349,0.08822 z m -0.35422,0.508287 0.303523,-1.270716 h 0.319984 l 0.288051,1.270716 h -0.254143 l -0.06255,-0.321959 H 68.85057 l -0.06288,0.321959 z m -1.0304,0 v -1.270716 h 0.672887 v 0.186328 h -0.435533 v 0.321959 h 0.408539 v 0.186328 h -0.408539 v 0.576101 z m 4.25723,-8.622439 c 0.03457,0 0.0688,0 0.102382,0 0.03391,0 0.06584,-0.0066 0.0958,-0.01909 0.02206,-0.0095 0.03983,-0.02337 0.053,-0.04247 0.01349,-0.01876 0.0237,-0.03917 0.03095,-0.06123 0.0069,-0.02206 0.01152,-0.04576 0.01383,-0.07078 0.0026,-0.02535 0.0036,-0.04905 0.0036,-0.07111 0,-0.04708 -0.0029,-0.0879 -0.0092,-0.122792 -0.0066,-0.03457 -0.01811,-0.06288 -0.03555,-0.08493 -0.01745,-0.02206 -0.04181,-0.03819 -0.07308,-0.04839 -0.0316,-0.01021 -0.07341,-0.01514 -0.125096,-0.01514 h -0.127733 v 0.535939 z m -0.0095,-0.795679 c 0.02041,0 0.04181,0 0.06387,0 0.02173,0 0.04345,-0.002 0.06485,-0.0059 0.02107,-0.0039 0.04115,-0.01021 0.06024,-0.01876 0.01876,-0.0089 0.03457,-0.02107 0.04708,-0.03687 0.0158,-0.02206 0.02535,-0.04872 0.02963,-0.08033 0.0039,-0.03127 0.0056,-0.06847 0.0056,-0.11094 0,-0.06584 -0.01087,-0.115879 -0.03292,-0.149787 -0.02206,-0.03391 -0.07078,-0.05168 -0.146496,-0.053 h -0.153407 v 0.455614 z m -0.39208,1.05509 v -1.770444 h 0.533635 c 0.03621,0 0.07176,9.98e-4 0.106331,0.0036 0.03457,0.0023 0.06749,0.0076 0.09909,0.01646 0.03161,0.0086 0.06189,0.02173 0.09086,0.03884 0.0293,0.01745 0.05564,0.04082 0.07901,0.07078 0.03786,0.04872 0.06189,0.09942 0.0721,0.151104 0.01021,0.05201 0.01547,0.107978 0.01547,0.167564 0,0.03786 -0.0029,0.07572 -0.0082,0.113574 -0.0056,0.03753 -0.0158,0.07275 -0.03095,0.105015 -0.01481,0.03226 -0.03621,0.06123 -0.06354,0.08724 -0.02765,0.02601 -0.06419,0.04773 -0.109952,0.06485 v 0.0049 c 0.09448,0.01251 0.160978,0.05531 0.199495,0.128389 0.03852,0.07341 0.05794,0.167233 0.05794,0.282125 0,0.03621 -0.0016,0.07242 -0.0046,0.108965 -0.0033,0.03588 -0.0095,0.0721 -0.01909,0.108308 -0.03621,0.113575 -0.0879,0.194887 -0.155711,0.244267 -0.06782,0.04971 -0.160651,0.0744 -0.278505,0.0744 z m 1.509719,-1.026778 c 0.0033,-0.113575 0.0102,-0.217932 0.0214,-0.314059 0.01087,-0.09613 0.03588,-0.179085 0.0744,-0.249205 0.03851,-0.06979 0.09547,-0.124768 0.171185,-0.163942 0.07539,-0.0395 0.179414,-0.05893 0.311423,-0.05893 0.132338,0 0.236366,0.01943 0.311753,0.05893 0.07572,0.03917 0.132668,0.09415 0.171185,0.163942 0.03852,0.07012 0.06354,0.153079 0.0744,0.249205 0.01087,0.09613 0.01811,0.200484 0.02107,0.314059 v 0.252497 c 0,0.118183 -0.0046,0.227149 -0.01417,0.326897 -0.0092,0.100077 -0.03325,0.186327 -0.07177,0.258752 -0.03884,0.07242 -0.09646,0.129047 -0.17382,0.169867 -0.07703,0.04082 -0.183035,0.06156 -0.318666,0.06156 -0.135301,0 -0.241634,-0.02074 -0.318667,-0.06156 -0.07703,-0.04082 -0.134968,-0.09744 -0.173487,-0.169867 -0.03852,-0.07242 -0.06255,-0.158675 -0.07177,-0.258752 -0.0096,-0.09975 -0.01448,-0.208714 -0.01448,-0.326897 z m 0.34002,0.417756 c 0,0.03621 0.0019,0.0767 0.0059,0.121804 0.0039,0.04477 0.01349,0.08625 0.02831,0.125096 0.01481,0.03852 0.03852,0.07111 0.07078,0.09777 0.03226,0.027 0.07671,0.04016 0.133328,0.04016 0.05991,0 0.105673,-0.01317 0.136946,-0.04016 0.0316,-0.02666 0.05531,-0.0609 0.07111,-0.10271 0.01548,-0.04148 0.02469,-0.08658 0.02699,-0.134644 0.0024,-0.04773 0.0036,-0.09316 0.0036,-0.13563 v -0.453311 c 0,-0.03621 -9.48e-4,-0.07967 -0.0024,-0.131021 -0.0017,-0.05103 -0.0099,-0.101065 -0.02502,-0.149788 -0.01481,-0.04905 -0.03852,-0.0902 -0.07078,-0.124108 -0.03226,-0.03358 -0.07901,-0.0507 -0.140569,-0.0507 -0.06452,0 -0.113246,0.01712 -0.146168,0.0507 -0.03325,0.03391 -0.05629,0.0744 -0.06979,0.121805 -0.01316,0.04708 -0.0204,0.0958 -0.02107,0.146164 -9.48e-4,0.05037 -0.0012,0.09284 -0.0012,0.127401 z m 1.80962,0.349611 c 0.07407,0 0.13168,-0.01086 0.173488,-0.03193 0.04181,-0.0214 0.07308,-0.05794 0.09448,-0.109954 0.0214,-0.05168 0.03423,-0.120816 0.03884,-0.206409 0.0049,-0.08592 0.0072,-0.192582 0.0072,-0.319983 0,-0.104028 -0.0033,-0.192912 -0.0096,-0.266654 -0.0063,-0.07407 -0.01844,-0.134643 -0.03654,-0.182048 -0.01811,-0.04708 -0.04247,-0.08131 -0.07308,-0.10271 -0.03095,-0.02107 -0.07144,-0.0316 -0.121804,-0.0316 h -0.216944 v 1.251293 z m -0.47438,0.259411 v -1.770444 h 0.689347 c 0.0204,0 0.04478,0.0026 0.07308,0.0082 0.02831,0.0056 0.05827,0.01581 0.08954,0.03062 0.0316,0.01514 0.06321,0.03556 0.09448,0.06156 0.0316,0.02568 0.05991,0.05926 0.08493,0.100077 0.03786,0.06156 0.06354,0.141886 0.07671,0.240976 0.0135,0.09909 0.0204,0.22254 0.0204,0.370681 0,0.08658 -0.0017,0.175464 -0.0049,0.266652 -0.0033,0.09152 -0.01283,0.178428 -0.02963,0.261056 -0.01646,0.08263 -0.04312,0.157359 -0.07999,0.224187 -0.0372,0.06683 -0.08954,0.119829 -0.157028,0.159334 -0.03621,0.02206 -0.07605,0.03555 -0.119171,0.04016 -0.04345,0.0046 -0.08559,0.0069 -0.126415,0.0069 z m 1.629876,0 v -1.770444 h 0.930324 v 0.25974 h -0.599806 v 0.446068 h 0.5524 v 0.259739 h -0.5524 v 0.545486 h 0.599806 v 0.259411 z m 1.365856,-1.026778 c 0.0033,-0.113575 0.0102,-0.217932 0.0214,-0.314059 0.01087,-0.09613 0.03556,-0.179085 0.0744,-0.249205 0.03852,-0.06979 0.09547,-0.124768 0.171184,-0.163942 0.07539,-0.0395 0.179086,-0.05893 0.311424,-0.05893 0.07078,0 0.13629,0.0059 0.195877,0.01778 0.05991,0.01153 0.112914,0.0316 0.159662,0.05992 0.04642,0.02864 0.08625,0.06683 0.120158,0.115878 0.03391,0.04872 0.06024,0.111599 0.07901,0.188961 0.0079,0.03621 0.01252,0.07177 0.01316,0.10732 6.99e-4,0.03523 0.0019,0.07111 0.0036,0.10732 h -0.330518 c -0.0017,-0.04543 -0.0046,-0.08757 -0.0082,-0.126413 -0.0039,-0.03852 -0.01384,-0.07275 -0.02963,-0.102711 -0.01579,-0.02963 -0.03951,-0.05366 -0.07078,-0.07177 -0.03161,-0.01811 -0.07572,-0.02798 -0.132342,-0.02963 -0.06452,0 -0.113244,0.01712 -0.146165,0.0507 -0.03325,0.03391 -0.05629,0.0744 -0.06979,0.121804 -0.0135,0.04708 -0.0204,0.0958 -0.02107,0.146165 -9.48e-4,0.05037 -0.0012,0.09284 -0.0012,0.127401 v 0.491168 c 0,0.03621 0.0019,0.0767 0.0059,0.121805 0.0039,0.04477 0.01316,0.08625 0.02831,0.125096 0.01481,0.03852 0.03852,0.07111 0.07078,0.09777 0.03226,0.02699 0.0767,0.04016 0.133326,0.04016 0.0474,0 0.08691,-0.01185 0.119172,-0.03523 0.03226,-0.0237 0.05794,-0.05629 0.0767,-0.0981 0.01909,-0.04181 0.03193,-0.09119 0.03917,-0.148798 0.0069,-0.05728 0.0099,-0.119172 0.0082,-0.185341 h -0.229123 v -0.259739 h 0.550095 v 0.951391 h -0.247891 v -0.202788 h -0.0046 c -0.01582,0.04543 -0.03556,0.08362 -0.05926,0.114233 -0.02336,0.03095 -0.04905,0.05563 -0.07638,0.0744 -0.02765,0.01909 -0.05629,0.03292 -0.08625,0.04148 -0.02996,0.0086 -0.05992,0.01383 -0.08987,0.01547 -0.135301,0 -0.241634,-0.02074 -0.318666,-0.06156 -0.07703,-0.04082 -0.134972,-0.09744 -0.173488,-0.169868 -0.03852,-0.07242 -0.06255,-0.158674 -0.0721,-0.258752 -0.0092,-0.09975 -0.01417,-0.208714 -0.01417,-0.326897 z m 1.540333,1.026778 0.422694,-1.770444 h 0.446397 l 0.401297,1.770444 H 79.99601 L 79.90877,70.98765 h -0.38714 l -0.08757,0.448372 z m 0.493472,-0.708112 h 0.283443 l -0.08987,-0.503019 c -0.0079,-0.04082 -0.01417,-0.08164 -0.01878,-0.122463 -0.0046,-0.04115 -0.0096,-0.08197 -0.01417,-0.122792 -0.0017,-0.02074 -0.0033,-0.04049 -0.0046,-0.06024 -0.0017,-0.01975 -0.0039,-0.03917 -0.0072,-0.05794 h -0.0046 c -0.0033,0.01876 -0.0056,0.03819 -0.0072,0.05794 -0.0012,0.01975 -0.0029,0.0395 -0.0046,0.06024 -0.0046,0.04082 -0.0096,0.08164 -0.01417,0.122792 -0.0046,0.04082 -0.01121,0.08164 -0.01909,0.122463 z m 0,0"
       id="path4" />
  </g>
</svg>
